<svg height="45" viewBox="0 0 1531.6 783.67" width="80" xmlns="http://www.w3.org/2000/svg"><g fill="#fff"><g stroke-width=".856"><path d="m857.23489 443.61656-35.35572 33.17058v59.92474h-60.55051v-236.9293h60.55051v110.65526l116.59803-110.65526h67.6794l-109.054 105.58708 115.5062 131.35034h-71.0905z"/><path d="m1028.3645 299.78258h60.9295v236.9293h-60.9295z"/><path d="m1194.9732 344.45404h-84.2474v-44.67146h229.4242v44.67146h-84.2473v192.25784h-60.9295z"/></g><path d="m267.1 302.15h-89.69v-52.84h244.23v52.84h-89.69v227.41h-64.85z"/><path d="m663.22 390.83q19.62 21.44 19.62 53.05a83.69 83.69 0 0 1 -12.81 45q-12.82 20.63-39 33-26.18 12.37-64.26 12.42a220.58 220.58 0 0 1 -58.25-7.81q-28.63-7.81-48.64-22.22l25.22-49.65a122 122 0 0 0 37 18.62 142.88 142.88 0 0 0 43 6.6q24.42 0 38.44-9.4 14.02-9.4 14-26.63 0-34.42-52.45-34.43h-29.58v-42.77l57.65-65.26h-119.31v-52h196.18v42l-63.26 72.07q36.82 5.99 56.45 27.41z"/></g></svg>