<svg viewBox="0 0 1531.6 783.67" width="80" xmlns="http://www.w3.org/2000/svg"><g fill="#010101"><path d="m0 0h783.67v783.67h-783.67z"/><path d="m996.45 422.09-39.18 40.84v73.78h-67.1v-291.71h67.1v136.24l129.21-136.24h75l-120.85 130 128 161.72h-78.78z"/><path d="m1186.09 245h67.52v291.71h-67.52z"/><path d="m1370.72 300h-93.36v-55h254.24v55h-93.36v236.71h-67.52z"/></g><g fill="#fff"><path d="m228.81 302.15h-89.69v-52.84h244.23v52.84h-89.69v227.41h-64.85z"/><path d="m624.93 390.83q19.62 21.44 19.62 53.05a83.69 83.69 0 0 1 -12.81 45q-12.82 20.63-39 33t-64.26 12.42a220.58 220.58 0 0 1 -58.25-7.81q-28.63-7.81-48.64-22.22l25.22-49.65a122 122 0 0 0 37 18.62 142.88 142.88 0 0 0 43 6.6q24.42 0 38.44-9.4t14-26.63q0-34.42-52.45-34.43h-29.58v-42.77l57.65-65.26h-119.31v-52h196.18v42l-63.26 72.07q36.82 5.99 56.45 27.41z"/></g></svg>