<svg fill="none" height="16" viewBox="0 0 16 16" width="16" xmlns="http://www.w3.org/2000/svg"><path d="m4 2h8v12h-8z" fill="#fff"/><path d="m4 2h8v6h-8z" fill="#59f"/><path d="m4 2v12h8v-12zm7 11h-6v-10h6z" fill="#999"/><g fill="#fff"><path d="m8.91 7h-3l.75-1 .75-1 .75 1z"/><path d="m9.90999 7h-2.67l.67-.67.67-.66.66.66z"/><path d="m9.5 5c.27614 0 .5-.22386.5-.5s-.22386-.5-.5-.5-.5.22386-.5.5.22386.5.5.5z"/></g><path d="m6 9h4v1h-4z" fill="#b9b9b9"/><path d="m6 11h2v1h-2z" fill="#b9b9b9"/></svg>