<?xml version="1.0" encoding="utf-8"?>
<!-- Generator: Adobe Illustrator 19.0.0, SVG Export Plug-In . SVG Version: 6.00 Build 0)  -->
<svg version="1.1" id="Contact" xmlns="http://www.w3.org/2000/svg" xmlns:xlink="http://www.w3.org/1999/xlink" x="0px" y="0px"
	 viewBox="0 0 16 16" style="enable-background:new 0 0 16 16;" xml:space="preserve">
<style type="text/css">
	.st0{fill-rule:evenodd;clip-rule:evenodd;fill:#D3D3D3;}
	.st1{fill:#999999;}
	.st2{fill:#FFFFFF;}
	.st3{fill:#4BB4DA;}
	.st4{fill:none;stroke:#F85B30;stroke-miterlimit:10;}
	.st5{fill:#FFFFFF;stroke:#F85B30;stroke-miterlimit:10;}
	.st6{fill:#F85B30;}
</style>
<path class="st0" d="M0,0h16v16H0V0z"/>
<polygon class="st1" points="13,4 12.6,11 3,11 8,16 16,16 16,7 "/>
<g>
	<g>
		<rect x="3.5" y="4.5" class="st2" width="9" height="6"/>
		<path class="st3" d="M12,5v5H4V5H12 M13,4H3v7h10V4L13,4z"/>
	</g>
	<polyline class="st4" points="4,10 8,6.4 12,10 	"/>
	<polyline class="st5" points="4,5 8,8.7 12,5 	"/>
	<g>
		<path class="st6" d="M12,5v5H4V5H12 M13,4H3v7h10V4L13,4z"/>
	</g>
</g>
</svg>
