<svg width="16" height="16" viewBox="0 0 16 16" fill="none" xmlns="http://www.w3.org/2000/svg">
<path d="M4 2H12V14H4V2Z" fill="white"/>
<path d="M4 2H12V8H4V2Z" fill="#5599FF"/>
<path d="M8.10001 5.8C8.59707 5.8 9.00001 5.39706 9.00001 4.9C9.00001 4.40294 8.59707 4 8.10001 4C7.60296 4 7.20001 4.40294 7.20001 4.9C7.20001 5.39706 7.60296 5.8 8.10001 5.8Z" fill="white"/>
<path d="M8.1 6C8.60391 6 9.08719 6.20018 9.4435 6.5565C9.79982 6.91282 10 7.39609 10 7.9C10 8.9 9.15 8.81 8.1 8.81C7.05 8.81 6.19 9 6.19 7.9C6.19265 7.39517 6.39504 6.91192 6.75295 6.55589C7.11086 6.19985 7.59517 5.99999 8.1 6V6Z" fill="white"/>
<path d="M4 2V14H12V2H4ZM11 13H5V3H11V13Z" fill="#999999"/>
<path d="M6 9H10V10H6V9Z" fill="#B9B9B9"/>
<path d="M6 11H8V12H6V11Z" fill="#B9B9B9"/>
</svg>
