<svg fill="none" height="16" viewBox="0 0 16 16" width="16" xmlns="http://www.w3.org/2000/svg"><path d="m4 2h8v12h-8z" fill="#fff"/><path d="m4 2h8v6h-8z" fill="#59f"/><path d="m8.10001 5.8c.49706 0 .9-.40294.9-.9s-.40294-.9-.9-.9c-.49705 0-.9.40294-.9.9s.40295.9.9.9z" fill="#fff"/><path d="m8.1 6c.50391 0 .98719.20018 1.3435.5565.35632.35632.5565.83959.5565 1.3435 0 1-.85.91-1.9.91s-1.91.19-1.91-.91c.00265-.50483.20504-.98808.56295-1.34411.35791-.35604.84222-.5559 1.34705-.55589z" fill="#fff"/><path d="m4 2v12h8v-12zm7 11h-6v-10h6z" fill="#999"/><g fill="#b9b9b9"><path d="m6 9h4v1h-4z"/><path d="m6 11h2v1h-2z"/></g></svg>