<?xml version="1.0" encoding="utf-8"?>
<!-- Generator: Adobe Illustrator 19.0.0, SVG Export Plug-In . SVG Version: 6.00 Build 0)  -->
<svg version="1.1" id="Copyright" xmlns="http://www.w3.org/2000/svg" xmlns:xlink="http://www.w3.org/1999/xlink" x="0px" y="0px"
	 viewBox="0 0 16 16" style="enable-background:new 0 0 16 16;" xml:space="preserve">
<style type="text/css">
	.st0{fill-rule:evenodd;clip-rule:evenodd;fill:#D3D3D3;}
	.st1{fill-rule:evenodd;clip-rule:evenodd;fill:#999999;}
	.st2{fill:#FFFFFF;}
	.st3{fill:#F85B30;}
</style>
<path class="st0" d="M0,0h16v16H0V0z"/>
<polygon class="st1" points="16,16 16,9 11,4 10,8.3 5,12 9.1,16 16,16 "/>
<g>
	<g>
		<path class="st2" d="M8,12.5c-2.5,0-4.5-2-4.5-4.5c0-2.5,2-4.5,4.5-4.5c2.5,0,4.5,2,4.5,4.5C12.5,10.5,10.4,12.5,8,12.5z"/>
		<path class="st3" d="M8,4c2.2,0,4,1.8,4,4s-1.8,4-4,4c-2.2,0-4-1.8-4-4S5.8,4,8,4 M8,3C5.2,3,3,5.2,3,8s2.2,5,5,5c2.7,0,5-2.2,5-5
			S10.7,3,8,3L8,3z"/>
	</g>
	<g>
		<path class="st3" d="M6.2,6c0.4-0.4,1-0.6,1.7-0.6c0.9,0,1.6,0.3,2,0.8c0.2,0.3,0.4,0.6,0.4,1H9.2C9.1,6.9,9,6.7,8.9,6.6
			C8.7,6.4,8.4,6.3,8,6.3c-0.4,0-0.7,0.2-1,0.5C6.8,7,6.7,7.5,6.7,8.1c0,0.6,0.1,1,0.4,1.3s0.6,0.4,1,0.4c0.4,0,0.7-0.1,0.9-0.4
			C9,9.3,9.1,9.1,9.2,8.8h1.2c-0.1,0.6-0.4,1-0.8,1.4S8.7,10.7,8,10.7c-0.8,0-1.4-0.2-1.9-0.7C5.7,9.5,5.5,8.9,5.5,8
			C5.5,7.2,5.7,6.5,6.2,6z"/>
	</g>
</g>
</svg>
