<?xml version="1.0" encoding="utf-8"?>
<svg version="1.1" id="element_x_1_" xmlns="http://www.w3.org/2000/svg" xmlns:xlink="http://www.w3.org/1999/xlink" x="0px"
	 y="0px" viewBox="0 0 100 100" style="enable-background:new 0 0 100 100;" xml:space="preserve">
<style type="text/css">
	.st0{fill-rule:evenodd;clip-rule:evenodd;fill:#D3D3D3;}
	.st1{fill-rule:evenodd;clip-rule:evenodd;fill:#999999;}
	.st2{fill-rule:evenodd;clip-rule:evenodd;fill:#FFFFFF;}
	.st3{fill:#FF5335;}
	.st4{fill-rule:evenodd;clip-rule:evenodd;fill:#939598;}
	.st5{fill-rule:evenodd;clip-rule:evenodd;fill:#BEBEBE;}
	.st6{fill:#7EBCD2;}
	.st7{fill-rule:evenodd;clip-rule:evenodd;fill:#7EBCD2;}
	.st8{fill-rule:evenodd;clip-rule:evenodd;fill:#A9D2E1;}
	.st9{fill-rule:evenodd;clip-rule:evenodd;fill:#D4E9F0;}
</style>
<path class="st0" d="M0,0h100v100H0V0z"/>
<polygon class="st1" points="100,24.3 88,12 87,78 20.3,78.2 12,88 24.9,100 100,100 "/>
<g>
	<rect x="13" y="13.1" class="st2" width="74" height="74"/>
	<path class="st3" d="M86,14.1v72H14v-72H86 M88,12.1H12v76h76V12.1L88,12.1z"/>
</g>
<rect x="29" y="24" class="st2" width="42" height="8"/>
<rect x="18" y="38" class="st2" width="64" height="4"/>
<rect x="18" y="47" class="st2" width="64" height="4"/>
<rect x="18" y="20" class="st4" width="64" height="8"/>
<rect x="18" y="34" class="st5" width="64" height="4"/>
<rect x="18" y="42" class="st5" width="64" height="4"/>
<rect x="18" y="50" class="st5" width="64" height="4"/>
<rect x="18" y="58" class="st5" width="26" height="4"/>
<rect x="18" y="66" class="st5" width="26" height="4"/>
<rect x="18" y="74" class="st5" width="26" height="4"/>
<g>
	<rect x="49" y="59" class="st2" width="32" height="18"/>
	<path class="st6" d="M80,60v16H50V60H80 M82,58H48v20h34V58L82,58z"/>
</g>
<polygon class="st7" points="58.6,67.3 50,76 67.1,76 "/>
<polygon class="st8" points="69,64.3 58,76 79.9,76 "/>
<circle class="st9" cx="55.2" cy="63.2" r="2.2"/>
</svg>
