<svg width="16" height="16" viewBox="0 0 16 16" fill="none" xmlns="http://www.w3.org/2000/svg">
<rect x="1" y="1" width="14" height="14" fill="white"/>
<path d="M2 2H9V9H2V2Z" fill="#5599FF"/>
<path d="M6.46 8H2.8L3.72 6.84L4.63 5.67L5.54 6.84L6.46 8Z" fill="white"/>
<path d="M7.66999 8H4.42999L5.23999 7.22L6.04999 6.45L6.85999 7.22L7.66999 8Z" fill="white"/>
<path d="M7 5C7.55229 5 8 4.55228 8 4C8 3.44772 7.55229 3 7 3C6.44772 3 6 3.44772 6 4C6 4.55228 6.44772 5 7 5Z" fill="white"/>
<path d="M10 2H14V6H10V2Z" fill="#5599FF"/>
<path d="M12.66 5H10.73L11.21 4.36L11.69 3.72L12.18 4.36L12.66 5Z" fill="white"/>
<path d="M13.3 5H11.59L12 4.57L12.42 4.14L12.85 4.57L13.3 5Z" fill="white"/>
<path d="M13 3.5C13.2761 3.5 13.5 3.27614 13.5 3C13.5 2.72386 13.2761 2.5 13 2.5C12.7239 2.5 12.5 2.72386 12.5 3C12.5 3.27614 12.7239 3.5 13 3.5Z" fill="white"/>
<path d="M2 10H9V14H2V10Z" fill="#5599FF"/>
<path d="M5.18 13.35H2.73L3.34 12.53L4 11.72L4.61 12.53L5.18 13.35Z" fill="white"/>
<path d="M6.00001 13.35H3.82001L4.37001 12.8L4.91001 12.26L5.45001 12.8L6.00001 13.35Z" fill="white"/>
<path d="M7.5 12C7.77614 12 8 11.7761 8 11.5C8 11.2239 7.77614 11 7.5 11C7.22386 11 7 11.2239 7 11.5C7 11.7761 7.22386 12 7.5 12Z" fill="white"/>
<path d="M10 7H14V14H10V7Z" fill="#5599FF"/>
<path d="M12.66 13H10.73L11.21 12.36L11.69 11.72L12.18 12.36L12.66 13Z" fill="white"/>
<path d="M13.3 13H11.59L12.02 12.57L12.44 12.14L12.87 12.57L13.3 13Z" fill="white"/>
<path d="M12.5 9C12.7761 9 13 8.77614 13 8.5C13 8.22386 12.7761 8 12.5 8C12.2239 8 12 8.22386 12 8.5C12 8.77614 12.2239 9 12.5 9Z" fill="white"/>
</svg>
