<svg fill="none" height="16" viewBox="0 0 16 16" width="16" xmlns="http://www.w3.org/2000/svg"><path d="m1 1h14v14h-14z" fill="#fff"/><path d="m2 2h7v7h-7z" fill="#59f"/><g fill="#fff"><path d="m6.46 8h-3.66l.92-1.16.91-1.17.91 1.17z"/><path d="m7.66999 8h-3.24l.81-.78.81-.77.81.77z"/><path d="m7 5c.55229 0 1-.44772 1-1s-.44771-1-1-1c-.55228 0-1 .44772-1 1s.44772 1 1 1z"/></g><path d="m10 2h4v4h-4z" fill="#59f"/><path d="m12.66 5h-1.93l.48-.64.48-.64.49.64z" fill="#fff"/><path d="m13.3 5h-1.71l.41-.43.42-.43.43.43z" fill="#fff"/><path d="m13 3.5c.2761 0 .5-.22386.5-.5s-.2239-.5-.5-.5-.5.22386-.5.5.2239.5.5.5z" fill="#fff"/><path d="m2 10h7v4h-7z" fill="#59f"/><path d="m5.18 13.35h-2.45l.61-.82.66-.81.61.81z" fill="#fff"/><path d="m6.00001 13.35h-2.18l.55-.55.54-.54.54.54z" fill="#fff"/><path d="m7.5 12c.27614 0 .5-.2239.5-.5s-.22386-.5-.5-.5-.5.2239-.5.5.22386.5.5.5z" fill="#fff"/><path d="m10 7h4v7h-4z" fill="#59f"/><path d="m12.66 13h-1.93l.48-.64.48-.64.49.64z" fill="#fff"/><path d="m13.3 13h-1.71l.43-.43.42-.43.43.43z" fill="#fff"/><path d="m12.5 9c.2761 0 .5-.22386.5-.5s-.2239-.5-.5-.5-.5.22386-.5.5.2239.5.5.5z" fill="#fff"/></svg>