<svg fill="none" height="16" viewBox="0 0 16 16" width="16" xmlns="http://www.w3.org/2000/svg"><path d="m1 3h14v10h-14z" fill="#59f"/><g fill="#fff"><path d="m11.25 11h-5.25l1.31-1.75 1.32-1.75 1.31 1.75z"/><path d="m13 11h-4.67l1.17-1.17 1.17-1.16 1.16 1.16z"/><path d="m12 7c.5523 0 1-.44771 1-1 0-.55228-.4477-1-1-1s-1 .44772-1 1c0 .55229.4477 1 1 1z"/></g><path d="m3 5h4v1h-4z" fill="#b9b9b9"/><path d="m3 7h4v1h-4z" fill="#b9b9b9"/><path d="m3 9h2v1h-2z" fill="#fff"/><path d="m1.5 3.5h13v9h-13z" stroke="#447acc"/></svg>