<svg width="16" height="16" viewBox="0 0 16 16" fill="none" xmlns="http://www.w3.org/2000/svg">
<rect x="1" y="1" width="14" height="14" fill="white"/>
<path d="M1 1V15H15V1H1ZM2 2H14V14H2V2Z" fill="#999999"/>
<line x1="1.5" y1="5" x2="1.5" y2="11" stroke="white"/>
<line x1="14.5" y1="5" x2="14.5" y2="11" stroke="white"/>
<g opacity="0.6">
<path opacity="0.6" d="M9 6H13V10H9V6Z" fill="#5599FF"/>
<g opacity="0.6">
<path opacity="0.6" d="M11.61 9.33H9.61L10.11 8.67L10.61 8L11.11 8.67L11.61 9.33Z" fill="white"/>
<path opacity="0.6" d="M12.27 9.33H10.5L10.94 8.89L11.39 8.44L11.83 8.89L12.27 9.33Z" fill="white"/>
<path opacity="0.6" d="M11.94 8.18C12.1223 8.18 12.27 8.03225 12.27 7.85C12.27 7.66775 12.1223 7.52 11.94 7.52C11.7577 7.52 11.61 7.66775 11.61 7.85C11.61 8.03225 11.7577 8.18 11.94 8.18Z" fill="white"/>
</g>
</g>
<g opacity="0.6">
<path opacity="0.6" d="M3 6H7V10H3V6Z" fill="#5599FF"/>
<g opacity="0.6">
<path opacity="0.6" d="M5.61 9.33H3.61L4.11 8.67L4.61 8L5.11 8.67L5.61 9.33Z" fill="white"/>
<path opacity="0.6" d="M6.27 9.33H4.5L4.94 8.89L5.39 8.44L5.83 8.89L6.27 9.33Z" fill="white"/>
<path opacity="0.6" d="M5.94 8.18C6.12225 8.18 6.27 8.03225 6.27 7.85C6.27 7.66775 6.12225 7.52 5.94 7.52C5.75775 7.52 5.61 7.66775 5.61 7.85C5.61 8.03225 5.75775 8.18 5.94 8.18Z" fill="white"/>
</g>
</g>
<path d="M0.830002 7.99L2 6.25V9.73L0.830002 7.99Z" fill="#5599FF"/>
<path d="M15.17 7.99L14 9.73V6.25L15.17 7.99Z" fill="#5599FF"/>
<path d="M4.26 4.25H11.74V11.73H4.26V4.25Z" fill="#5599FF"/>
<path d="M9.14 10.23H5.4L6.33 9L7.27 7.75L8.2 9L9.14 10.23Z" fill="white"/>
<path d="M10.38 10.23H7.06L7.89 9.4L8.72 8.57L9.55 9.4L10.38 10.23Z" fill="white"/>
<path d="M9.75 7.5C10.1642 7.5 10.5 7.16421 10.5 6.75C10.5 6.33579 10.1642 6 9.75 6C9.33579 6 9 6.33579 9 6.75C9 7.16421 9.33579 7.5 9.75 7.5Z" fill="white"/>
</svg>
