<svg fill="none" height="16" viewBox="0 0 16 16" width="16" xmlns="http://www.w3.org/2000/svg"><path d="m1 1h14v14h-14z" fill="#fff"/><path d="m1 1v14h14v-14zm1 1h12v12h-12z" fill="#999"/><path d="m1.5 5v6" stroke="#fff"/><path d="m14.5 5v6" stroke="#fff"/><g opacity=".6"><path d="m9 6h4v4h-4z" fill="#59f" opacity=".6"/><g fill="#fff" opacity=".6"><path d="m11.61 9.33h-2l.5-.66.5-.67.5.67z" opacity=".6"/><path d="m12.27 9.33h-1.77l.44-.44.45-.45.44.45z" opacity=".6"/><path d="m11.94 8.18c.1823 0 .33-.14775.33-.33s-.1477-.33-.33-.33-.33.14775-.33.33.1477.33.33.33z" opacity=".6"/></g></g><g opacity=".6"><path d="m3 6h4v4h-4z" fill="#59f" opacity=".6"/><g fill="#fff" opacity=".6"><path d="m5.61 9.33h-2l.5-.66.5-.67.5.67z" opacity=".6"/><path d="m6.27 9.33h-1.77l.44-.44.45-.45.44.45z" opacity=".6"/><path d="m5.94 8.18c.18225 0 .33-.14775.33-.33s-.14775-.33-.33-.33-.33.14775-.33.33.14775.33.33.33z" opacity=".6"/></g></g><path d="m.830002 7.99 1.169998-1.74v3.48z" fill="#59f"/><path d="m15.17 7.99-1.17 1.74v-3.48z" fill="#59f"/><path d="m4.26 4.25h7.48v7.48h-7.48z" fill="#59f"/><g fill="#fff"><path d="m9.14 10.23h-3.74l.93-1.23.94-1.25.93 1.25z"/><path d="m10.38 10.23h-3.32l.83-.83.83-.83.83.83z"/><path d="m9.75 7.5c.4142 0 .75-.33579.75-.75s-.3358-.75-.75-.75c-.41421 0-.75.33579-.75.75s.33579.75.75.75z"/></g></svg>