<svg fill="none" height="16" viewBox="0 0 16 16" width="16" xmlns="http://www.w3.org/2000/svg"><path d="m1 1h14v14h-14z" fill="#fff"/><path d="m2 2h6v6h-6z" fill="#59f"/><g fill="#fff"><path d="m6 7h-2.87l.72-1 .72-1 .71 1z"/><path d="m7 7h-2.59l.64-.64.63-.64.64.64z"/><path d="m6.25 4.5c.41421 0 .75-.33579.75-.75s-.33579-.75-.75-.75-.75.33579-.75.75.33579.75.75.75z"/></g><path d="m8 8h6v6h-6z" fill="#59f"/><path d="m12 13h-2.87l.72001-1 .71999-.95.71.95z" fill="#fff"/><path d="m13 13h-2.59l.64-.64.63-.64.64.64z" fill="#fff"/><path d="m12.25 10.5c.4142 0 .75-.3358.75-.75 0-.41421-.3358-.75-.75-.75s-.75.33579-.75.75c0 .4142.3358.75.75.75z" fill="#fff"/><path d="m9 2h5v1h-5z" fill="#b9b9b9"/><path d="m9 4h5v1h-5z" fill="#b9b9b9"/><path d="m9 6h3v1h-3z" fill="#79a548"/><path d="m2 9h5v1h-5z" fill="#b9b9b9"/><path d="m2 11h5v1h-5z" fill="#b9b9b9"/><path d="m2 13h3v1h-3z" fill="#79a548"/></svg>