<svg fill="none" height="16" viewBox="0 0 16 16" width="16" xmlns="http://www.w3.org/2000/svg"><path d="m2 2h12v12h-12z" fill="#fff"/><path d="m14 2v12h-12v-12zm1-1h-14v14h14z" fill="#999"/><path d="m3 10h10v1h-10z" fill="#b9b9b9"/><path d="m3 12h4v1h-4z" fill="#79a548"/><path d="m5 3h6v6h-6z" fill="#59f"/><g fill="#fff"><path d="m8.91 8h-3l.75-1 .75-1 .75 1z"/><path d="m9.91 8h-2.67l.67-.67.67-.66.66.66z"/><path d="m9.25 5.5c.41421 0 .75-.33579.75-.75s-.33579-.75-.75-.75-.75.33579-.75.75.33579.75.75.75z"/></g></svg>