<?xml version="1.0" encoding="utf-8"?>
<!-- Generator: Adobe Illustrator 19.0.0, SVG Export Plug-In . SVG Version: 6.00 Build 0)  -->
<svg version="1.1" id="IconTextButton" xmlns="http://www.w3.org/2000/svg" xmlns:xlink="http://www.w3.org/1999/xlink" x="0px"
	 y="0px" viewBox="0 0 16 16" style="enable-background:new 0 0 16 16;" xml:space="preserve">
<style type="text/css">
	.st0{fill-rule:evenodd;clip-rule:evenodd;fill:#D3D3D3;}
	.st1{fill-rule:evenodd;clip-rule:evenodd;fill:#FFFFFF;}
	.st2{fill:#F85B30;}
	.st3{fill-rule:evenodd;clip-rule:evenodd;fill:#999999;}
	.st4{fill-rule:evenodd;clip-rule:evenodd;fill:#58595B;}
	.st5{fill-rule:evenodd;clip-rule:evenodd;fill:#939598;}
	.st6{fill-rule:evenodd;clip-rule:evenodd;fill:#4BB4DA;}
	.st7{fill-rule:evenodd;clip-rule:evenodd;fill:#F85B30;}
</style>
<g>
	<path class="st0" d="M0,0h16v16H0V0z"/>
	<g>
		<rect x="1.5" y="1.5" class="st1" width="13" height="13"/>
		<path class="st2" d="M14,2v12H2V2H14 M15,1H1v14h14V1L15,1z"/>
	</g>
	<g>
		<polygon class="st3" points="15,15 1,15 2,16 16,16 		"/>
	</g>
	<rect x="6" y="4" class="st4" width="7" height="1"/>
	<rect x="3" y="6" class="st5" width="10" height="1"/>
	<circle class="st6" cx="4" cy="4" r="1"/>
	<g>
		<rect x="3" y="12" class="st7" width="4" height="1"/>
	</g>
	<g>
		<polygon class="st3" points="15,15 15,1 16,2 16,16 		"/>
	</g>
	<rect x="3" y="8" class="st5" width="10" height="1"/>
	<rect x="3" y="10" class="st5" width="10" height="1"/>
</g>
</svg>
