<?xml version="1.0" encoding="utf-8"?>
<!-- Generator: Adobe Illustrator 19.0.0, SVG Export Plug-In . SVG Version: 6.00 Build 0)  -->
<svg version="1.1" id="LogoCarousel" xmlns="http://www.w3.org/2000/svg" xmlns:xlink="http://www.w3.org/1999/xlink" x="0px"
	 y="0px" viewBox="0 0 16 16" style="enable-background:new 0 0 16 16;" xml:space="preserve">
<style type="text/css">
	.st0{fill-rule:evenodd;clip-rule:evenodd;fill:#D3D3D3;}
	.st1{fill-rule:evenodd;clip-rule:evenodd;fill:#999999;}
	.st2{fill-rule:evenodd;clip-rule:evenodd;fill:#FFFFFF;}
	.st3{fill:#4BB4DA;}
	.st4{fill:#F85B30;}
	.st5{fill:#6D6E71;stroke:#58595B;stroke-linecap:square;stroke-miterlimit:10;}
	.st6{fill:#58595B;}
</style>
<g>
	<path class="st0" d="M0,0h16v16H0V0z"/>
	<polygon class="st1" points="16,8.2 12.9,5.4 12,8 8,4 3,10 9,16 16,16 	"/>
	<g>
		<rect x="3.5" y="4.5" class="st2" width="4" height="5"/>
		<path class="st3" d="M7,5v4H4V5H7 M8,4H3v6h5V4L8,4z"/>
	</g>
	<g>
		<circle class="st2" cx="11" cy="7" r="2"/>
		<path class="st4" d="M11,5.5c0.8,0,1.5,0.7,1.5,1.5S11.8,8.5,11,8.5S9.5,7.8,9.5,7S10.2,5.5,11,5.5 M11,4.5C9.6,4.5,8.5,5.6,8.5,7
			S9.6,9.5,11,9.5s2.5-1.1,2.5-2.5S12.4,4.5,11,4.5L11,4.5z"/>
	</g>
	<g>
		<line class="st5" x1="14" y1="6" x2="15" y2="7"/>
		<line class="st5" x1="14" y1="8" x2="15" y2="7"/>
	</g>
	<circle class="st4" cx="6" cy="11.6" r="0.6"/>
	<g>
		<circle class="st6" cx="8" cy="11.6" r="0.6"/>
	</g>
	<g>
		<circle class="st6" cx="10" cy="11.6" r="0.6"/>
	</g>
	<g>
		<line class="st5" x1="2" y1="8" x2="1" y2="7"/>
		<line class="st5" x1="2" y1="6" x2="1" y2="7"/>
	</g>
</g>
</svg>
