<?xml version="1.0" encoding="utf-8"?>
<!-- Generator: Adobe Illustrator 19.0.0, SVG Export Plug-In . SVG Version: 6.00 Build 0)  -->
<svg version="1.1" id="Slider" xmlns="http://www.w3.org/2000/svg" xmlns:xlink="http://www.w3.org/1999/xlink" x="0px" y="0px"
	 viewBox="0 0 16 16" style="enable-background:new 0 0 16 16;" xml:space="preserve">
<style type="text/css">
	.st0{fill-rule:evenodd;clip-rule:evenodd;fill:#D3D3D3;}
	.st1{fill-rule:evenodd;clip-rule:evenodd;fill:#999999;}
	.st2{fill:#6D6E71;stroke:#58595B;stroke-linecap:square;stroke-miterlimit:10;}
	.st3{fill:#F85B30;}
	.st4{fill:#58595B;}
	.st5{fill-rule:evenodd;clip-rule:evenodd;fill:#4BB4DA;}
	.st6{fill-rule:evenodd;clip-rule:evenodd;fill:#93D2E9;}
	.st7{fill-rule:evenodd;clip-rule:evenodd;fill:#B7E1F0;}
	.st8{fill:#FFFFFF;}
</style>
<g>
	<path class="st0" d="M0,0h16v16H0V0z"/>
	<polygon class="st1" points="16,5 13,2 12,8 12,9 3,12 7,16 16,16 	"/>
	<g>
		<line class="st2" x1="14" y1="6" x2="15" y2="7"/>
		<line class="st2" x1="14" y1="8" x2="15" y2="7"/>
	</g>
	<circle class="st3" cx="6" cy="13.4" r="0.6"/>
	<g>
		<circle class="st4" cx="8" cy="13.4" r="0.6"/>
	</g>
	<g>
		<circle class="st4" cx="10" cy="13.4" r="0.6"/>
	</g>
	<g>
		<rect x="3.5" y="2.5" class="st5" width="9" height="9"/>
		<path class="st3" d="M12,3v8H4V3H12 M13,2H3v10h10V2L13,2z"/>
	</g>
	<polygon class="st6" points="6.3,8.4 4.1,11 8.6,11 	"/>
	<polygon class="st7" points="9.1,7.2 6.3,11 12,11 	"/>
	<ellipse class="st8" cx="6.2" cy="6.3" rx="0.8" ry="0.7"/>
	<g>
		<line class="st2" x1="2" y1="8" x2="1" y2="7"/>
		<line class="st2" x1="2" y1="6" x2="1" y2="7"/>
	</g>
</g>
</svg>
