<?xml version="1.0" encoding="utf-8"?>
<!-- Generator: Adobe Illustrator 19.0.0, SVG Export Plug-In . SVG Version: 6.00 Build 0)  -->
<svg version="1.1" id="Social" xmlns="http://www.w3.org/2000/svg" xmlns:xlink="http://www.w3.org/1999/xlink" x="0px" y="0px"
	 viewBox="0 0 16 16" style="enable-background:new 0 0 16 16;" xml:space="preserve">
<style type="text/css">
	.st0{fill-rule:evenodd;clip-rule:evenodd;fill:#D3D3D3;}
	.st1{fill-rule:evenodd;clip-rule:evenodd;fill:#999999;}
	.st2{fill:#FFFFFF;}
	.st3{fill:#F85B30;}
	.st4{fill:#4BB4DA;}
</style>
<g>
	<path class="st0" d="M0,0h16v16H0V0z"/>
	<polygon class="st1" points="16,16 16,6 13,3 12,5.1 3,13 6.1,16 16,16 	"/>
	<g>
		<g>
			<rect x="3.5" y="3.5" class="st2" width="9" height="9"/>
			<path class="st3" d="M12,4v8H4V4H12 M13,3H3v10h10V3L13,3z"/>
		</g>
		<g>
			<path class="st4" d="M9.4,8H8.5v3.2H7.3V8H6.5V6.9l0.8,0l0-0.6c0-0.9,0.2-1.5,1.3-1.5h0.9v1.1H8.9c-0.4,0-0.4,0.2-0.4,0.4v0.6h1
				L9.4,8z M9.4,8"/>
		</g>
	</g>
</g>
</svg>
