<?xml version="1.0" encoding="utf-8"?>
<!-- Generator: Adobe Illustrator 19.0.0, SVG Export Plug-In . SVG Version: 6.00 Build 0)  -->
<svg version="1.1" id="FullWidthImage" xmlns="http://www.w3.org/2000/svg" xmlns:xlink="http://www.w3.org/1999/xlink" x="0px"
	 y="0px" viewBox="0 0 16 16" style="enable-background:new 0 0 16 16;" xml:space="preserve">
<style type="text/css">
	.st0{fill-rule:evenodd;clip-rule:evenodd;fill:#D3D3D3;}
	.st1{fill-rule:evenodd;clip-rule:evenodd;fill:#FFFFFF;}
	.st2{fill:#F85B30;}
	.st3{fill-rule:evenodd;clip-rule:evenodd;fill:#999999;}
	.st4{fill-rule:evenodd;clip-rule:evenodd;fill:#4BB4DA;}
	.st5{fill-rule:evenodd;clip-rule:evenodd;fill:#93D2E9;}
	.st6{fill-rule:evenodd;clip-rule:evenodd;fill:#B7E1F0;}
	.st7{fill:#FFFFFF;}
</style>
<g>
	<path class="st0" d="M0,0h16v16H0V0z"/>
	<g>
		<rect x="1.5" y="1.5" class="st1" width="13" height="13"/>
		<path class="st2" d="M14,2v12H2V2H14 M15,1H1v14h14V1L15,1z"/>
	</g>
	<g>
		<polygon class="st3" points="15,15 1,15 2,16 16,16 		"/>
	</g>
	<g>
		<rect x="1" y="4" class="st4" width="14" height="8"/>
	</g>
	<polygon class="st5" points="6.3,8 3,12 9.5,12 	"/>
	<polygon class="st6" points="11,6.3 7,12 15,12 	"/>
	<circle class="st7" cx="4" cy="7" r="1"/>
	<g>
		<polygon class="st3" points="15,15 15,1 16,2 16,16 		"/>
	</g>
</g>
</svg>
