<?xml version="1.0" encoding="utf-8"?>
<!-- Generated by IcoMoon.io -->
<!DOCTYPE svg PUBLIC "-//W3C//DTD SVG 1.1//EN" "http://www.w3.org/Graphics/SVG/1.1/DTD/svg11.dtd">
<svg version="1.1" xmlns="http://www.w3.org/2000/svg" xmlns:xlink="http://www.w3.org/1999/xlink" width="32" height="32" viewBox="0 0 32 32">
<path fill="#444" d="M21 13h6.993c1.671 0 3.007 1.343 3.007 2.999v7.002c0 1.657-1.346 2.999-3.007 2.999h-6.993v2.009c0 1.093-0.894 1.991-1.997 1.991h-15.005c-1.107 0-1.997-0.899-1.997-2.007v-22.985c0-1.109 0.897-2.007 2.003-2.007h10.997l6 7v3zM20 26h-8.993c-1.671 0-3.007-1.343-3.007-2.999v-7.002c0-1.657 1.346-2.999 3.007-2.999h8.993v-2h-4.002c-1.103 0-1.998-0.887-1.998-2.006v-4.994h-10.004c-0.55 0-0.996 0.455-0.996 0.995v23.009c0 0.55 0.455 0.995 1 0.995h15c0.552 0 1-0.445 1-0.993v-2.007zM15 4.5v4.491c0 0.557 0.451 1.009 0.997 1.009h3.703l-4.7-5.5zM10.995 14c-1.102 0-1.995 0.9-1.995 1.992v7.016c0 1.1 0.902 1.992 1.995 1.992h17.011c1.102 0 1.995-0.9 1.995-1.992v-7.016c0-1.1-0.902-1.992-1.995-1.992h-17.011zM22 21c-0.003 1.117-0.9 2-2.005 2h-0.99c-1.111 0-2.005-0.898-2.005-2.006v-2.988c0-1.119 0.898-2.006 2.005-2.006h0.99c1.109 0 2.002 0.895 2.005 2h-1c0-0.552-0.443-1-0.999-1h-1.002c-0.552 0-0.999 0.444-0.999 1v3c0 0.552 0.443 1 0.999 1h1.002c0.552 0 0.999-0.444 0.999-1l1-0z"></path>
</svg>
