<?xml version="1.0" encoding="utf-8"?>
<!-- Generated by IcoMoon.io -->
<!DOCTYPE svg PUBLIC "-//W3C//DTD SVG 1.1//EN" "http://www.w3.org/Graphics/SVG/1.1/DTD/svg11.dtd">
<svg version="1.1" xmlns="http://www.w3.org/2000/svg" xmlns:xlink="http://www.w3.org/1999/xlink" width="32" height="32" viewBox="0 0 32 32">
<path fill="#444" d="M19 13h10.006c1.654 0 2.994 1.343 2.994 2.999v7.002c0 1.657-1.341 2.999-2.994 2.999h-10.006v2.009c0 1.093-0.894 1.991-1.997 1.991h-15.005c-1.107 0-1.997-0.899-1.997-2.007v-22.985c0-1.109 0.897-2.007 2.003-2.007h10.997l6 7v3zM18 26h-12.006c-1.654 0-2.994-1.343-2.994-2.999v-7.002c0-1.657 1.341-2.999 2.994-2.999h12.006v-2h-4.002c-1.103 0-1.998-0.887-1.998-2.006v-4.994h-10.004c-0.55 0-0.996 0.455-0.996 0.995v23.009c0 0.55 0.455 0.995 1 0.995h15c0.552 0 1-0.445 1-0.993v-2.007zM13 4.5v4.491c0 0.557 0.451 1.009 0.997 1.009h3.703l-4.7-5.5zM6.007 14c-1.109 0-2.007 0.9-2.007 1.992v7.016c0 1.1 0.898 1.992 2.007 1.992h22.985c1.109 0 2.007-0.9 2.007-1.992v-7.016c0-1.1-0.898-1.992-2.007-1.992h-22.985zM29 22v1h-5v-7h1v6h4zM14 17v6h1v-6h2v-1h-5v1h2zM10 19v-3h1v7h-1v-3h-3v3h-1v-7h1v3h3zM20.5 19l-1.5-3h-1v7h1v-5l1 2h1l1-2v5h1v-7h-1l-1.5 3z"></path>
</svg>
