<?xml version="1.0" encoding="utf-8"?>
<!-- Generated by IcoMoon.io -->
<!DOCTYPE svg PUBLIC "-//W3C//DTD SVG 1.1//EN" "http://www.w3.org/Graphics/SVG/1.1/DTD/svg11.dtd">
<svg version="1.1" xmlns="http://www.w3.org/2000/svg" xmlns:xlink="http://www.w3.org/1999/xlink" width="32" height="32" viewBox="0 0 32 32">
<path fill="#444" d="M21 13v-3l-6-7h-10.997c-1.106 0-2.003 0.898-2.003 2.007v22.985c0 1.109 0.891 2.007 1.997 2.007h15.005c1.103 0 1.997-0.898 1.997-1.991v-2.009h7.993c1.661 0 3.007-1.342 3.007-2.999v-7.002c0-1.656-1.336-2.999-3.007-2.999h-7.993zM20 26v2.007c0 0.548-0.448 0.993-1 0.993h-15c-0.545 0-1-0.446-1-0.995v-23.009c0-0.54 0.446-0.995 0.996-0.995h10.004v4.994c0 1.119 0.895 2.006 1.998 2.006h4.002v2h-7.993c-1.661 0-3.007 1.342-3.007 2.999v7.002c0 1.656 1.336 2.999 3.007 2.999h7.993zM15 4.5l4.7 5.5h-3.703c-0.546 0-0.997-0.452-0.997-1.009v-4.491zM11.995 14h17.011c1.092 0 1.995 0.892 1.995 1.992v7.016c0 1.092-0.893 1.992-1.995 1.992h-17.011c-1.092 0-1.995-0.892-1.995-1.992v-7.016c0-1.092 0.893-1.992 1.995-1.992zM12 20v0.994c0 1.108 0.894 2.006 2.005 2.006h0.99c1.107 0 2.005-0.887 2.005-2.006v-4.994h-1v5.009c0 0.54-0.447 0.991-0.999 0.991h-1.002c-0.556 0-0.999-0.448-0.999-1v-1h-1zM18 18v-2h2.995c1.111 0 2.005 0.895 2.005 2 0 1.112-0.898 2-2.005 2h-1.995v3h-1v-5zM19 17v2h2.001c0.552 0 0.999-0.444 0.999-1 0-0.552-0.443-1-0.999-1h-2.001zM28 20v2h-2c-0.556 0-1-0.448-1-1v-3c0-0.556 0.448-1 1-1h3v-1h-2.995c-1.107 0-2.005 0.887-2.005 2.006v2.988c0 1.108 0.894 2.006 2.005 2.006h2.995v-4h-3v1h2z"></path>
</svg>
