<?xml version="1.0" encoding="utf-8"?>
<!-- Generated by IcoMoon.io -->
<!DOCTYPE svg PUBLIC "-//W3C//DTD SVG 1.1//EN" "http://www.w3.org/Graphics/SVG/1.1/DTD/svg11.dtd">
<svg version="1.1" xmlns="http://www.w3.org/2000/svg" xmlns:xlink="http://www.w3.org/1999/xlink" width="32" height="32" viewBox="0 0 32 32">
<path fill="#444" d="M21 13v-3l-6-7h-10.997c-1.106 0-2.003 0.898-2.003 2.007v22.985c0 1.109 0.891 2.007 1.997 2.007h15.005c1.103 0 1.997-0.898 1.997-1.991v-2.009h7.993c1.661 0 3.007-1.342 3.007-2.999v-7.002c0-1.656-1.336-2.999-3.007-2.999h-7.993zM20 26v2.007c0 0.548-0.448 0.993-1 0.993h-15c-0.545 0-1-0.446-1-0.995v-23.009c0-0.54 0.446-0.995 0.996-0.995h10.004v4.994c0 1.119 0.895 2.006 1.998 2.006h4.002v2h-7.993c-1.661 0-3.007 1.342-3.007 2.999v7.002c0 1.656 1.336 2.999 3.007 2.999h7.993zM15 4.5l4.7 5.5h-3.703c-0.546 0-0.997-0.452-0.997-1.009v-4.491zM11.995 14h17.011c1.092 0 1.995 0.892 1.995 1.992v7.016c0 1.092-0.893 1.992-1.995 1.992h-17.011c-1.092 0-1.995-0.892-1.995-1.992v-7.016c0-1.092 0.893-1.992 1.995-1.992zM16.5 23h-0.5l-1.5-3-1.5 3h-1v-7h1v5l1-2h1l1 2v-5h1v7h-0.5zM22 20h-3v3h-1v-5c0-1.112 0.898-2 2.005-2h0.99c1.111 0 2.005 0.895 2.005 2v5h-1v-3zM19.999 17c-0.552 0-0.999 0.444-0.999 1v1h3v-1c0-0.552-0.443-1-0.999-1h-1.002zM26.5 21.25l1.5-5.25h1l-2 7h-1l-2-7h1l1.5 5.25z"></path>
</svg>
