<?xml version="1.0" encoding="utf-8"?>
<!-- Generator: Adobe Illustrator 19.0.0, SVG Export Plug-In . SVG Version: 6.00 Build 0)  -->
<svg version="1.1" id="AccordioncConteiner" xmlns="http://www.w3.org/2000/svg" xmlns:xlink="http://www.w3.org/1999/xlink"
	 x="0px" y="0px" viewBox="0 0 16 16" style="enable-background:new 0 0 16 16;" xml:space="preserve">
<style type="text/css">
	.st0{fill-rule:evenodd;clip-rule:evenodd;fill:#D3D3D3;}
	.st1{fill-rule:evenodd;clip-rule:evenodd;fill:#FFFFFF;}
	.st2{fill:#F85B30;}
	.st3{fill:#4BB4DA;}
	.st4{fill-rule:evenodd;clip-rule:evenodd;fill:#F85B30;}
	.st5{fill-rule:evenodd;clip-rule:evenodd;fill:#999999;}
	.st6{fill-rule:evenodd;clip-rule:evenodd;fill:#58595B;}
	.st7{fill-rule:evenodd;clip-rule:evenodd;fill:#939598;}
	.st8{opacity:0.1;fill-rule:evenodd;clip-rule:evenodd;fill:#FFFFFF;}
</style>
<g>
	<path class="st0" d="M0,0h16v16H0V0z"/>
	<g>
		<rect x="1.5" y="1.5" class="st1" width="13" height="13"/>
		<path class="st2" d="M14,2v12H2V2H14 M15,1H1v14h14V1L15,1z"/>
	</g>
	<g>
		<rect x="3.5" y="3.5" class="st1" width="9" height="3"/>
		<path class="st3" d="M12,4v2H4V4H12 M13,3H3v4h10V3L13,3z"/>
	</g>
	<g>
		<rect x="3.5" y="6.5" class="st1" width="9" height="6"/>
		<path class="st3" d="M12,7v5H4V7H12 M13,6H3v7h10V6L13,6z"/>
	</g>
	<polygon class="st4" points="5.6,5 4.5,4.2 4.5,5.8 	"/>
	<polygon class="st4" points="5.2,8.6 6,7.5 4.5,7.5 	"/>
</g>
<g>
	<polygon class="st5" points="15,15 1,15 2,16 16,16 	"/>
</g>
<g>
	<polygon class="st5" points="15,15 15,1 16,2 16,16 	"/>
</g>
<rect x="5" y="9" class="st6" width="6" height="1"/>
<rect x="5" y="10.5" class="st7" width="6" height="1"/>
<rect x="2" y="2" class="st8" width="12" height="12"/>
</svg>
