<?xml version="1.0" encoding="utf-8"?>
<!-- Generator: Adobe Illustrator 19.0.0, SVG Export Plug-In . SVG Version: 6.00 Build 0)  -->
<svg version="1.1" id="Paralax" xmlns="http://www.w3.org/2000/svg" xmlns:xlink="http://www.w3.org/1999/xlink" x="0px" y="0px"
	 viewBox="0 0 16 16" style="enable-background:new 0 0 16 16;" xml:space="preserve">
<style type="text/css">
	.st0{fill-rule:evenodd;clip-rule:evenodd;fill:#D3D3D3;}
	.st1{fill-rule:evenodd;clip-rule:evenodd;fill:#999999;}
	.st2{opacity:0.48;}
	.st3{fill-rule:evenodd;clip-rule:evenodd;fill:#4BB4DA;}
	.st4{fill:#F85B30;}
	.st5{fill-rule:evenodd;clip-rule:evenodd;fill:#D3EDF4;}
	.st6{opacity:0.41;}
	.st7{fill-rule:evenodd;clip-rule:evenodd;fill:#DCEFF4;}
	.st8{fill:#FFFFFF;}
</style>
<g>
	<path class="st0" d="M0,0h16v16H0V0z"/>
	<polygon class="st1" points="16,5 15,4 15,14 4,14 6,16 7,16 16,16 	"/>
	<g class="st2">
		<rect x="1.5" y="2.5" class="st3" width="11" height="9"/>
		<path class="st4" d="M12,3v8H2V3H12 M13,2H1v10h12V2L13,2z"/>
	</g>
	<polygon class="st5" points="6.1,6 2,11 10.2,11 	"/>
	<g>
		<path class="st4" d="M14,5v8H5V5H14 M15,4H4v10h11V4L15,4z"/>
	</g>
	<g class="st6">
		<rect x="4.5" y="4.5" class="st3" width="10" height="9"/>
		<path class="st4" d="M14,5v8H5V5H14 M15,4H4v10h11V4L15,4z"/>
	</g>
	<polygon class="st7" points="10.5,7 6,13 14,13 14,11.7 	"/>
	<ellipse class="st8" cx="8.8" cy="6.7" rx="0.8" ry="0.7"/>
</g>
</svg>
