<?xml version="1.0" encoding="utf-8"?>
<!-- Generator: Adobe Illustrator 19.0.0, SVG Export Plug-In . SVG Version: 6.00 Build 0)  -->
<svg version="1.1" id="Accordion_2_" xmlns="http://www.w3.org/2000/svg" xmlns:xlink="http://www.w3.org/1999/xlink" x="0px"
	 y="0px" viewBox="0 0 16 16" style="enable-background:new 0 0 16 16;" xml:space="preserve">
<style type="text/css">
	.st0{fill-rule:evenodd;clip-rule:evenodd;fill:#D3D3D3;}
	.st1{fill-rule:evenodd;clip-rule:evenodd;fill:#FFFFFF;}
	.st2{fill:#F85B30;}
	.st3{fill-rule:evenodd;clip-rule:evenodd;fill:#999999;}
	.st4{fill-rule:evenodd;clip-rule:evenodd;fill:#58595B;}
	.st5{fill-rule:evenodd;clip-rule:evenodd;fill:#939598;}
	.st6{fill-rule:evenodd;clip-rule:evenodd;fill:#4BB4DA;}
</style>
<g>
	<path class="st0" d="M0,0h16v16H0V0z"/>
	<g>
		<rect x="1.5" y="1.5" class="st1" width="13" height="4"/>
		<path class="st2" d="M14,2v3H2V2H14 M15,1H1v5h14V1L15,1z"/>
	</g>
	<g>
		<rect x="1.5" y="5.5" class="st1" width="13" height="9"/>
		<path class="st2" d="M14,6v8H2V6H14 M15,5H1v10h14V5L15,5z"/>
	</g>
	<g>
		<polygon class="st3" points="15,15 1,15 2,16 16,16 		"/>
	</g>
	<g>
		<polygon class="st3" points="15,15 15,1 16,2 16,16 		"/>
	</g>
	<rect x="3" y="9" class="st4" width="10" height="1"/>
	<rect x="3" y="10.5" class="st5" width="10" height="1"/>
	<rect x="3" y="12" class="st5" width="10" height="1"/>
	<polygon class="st6" points="4.5,3.5 3,2.5 3,4.5 	"/>
	<polygon class="st6" points="3.5,8.5 4.5,7 2.5,7 	"/>
</g>
</svg>
