<?xml version="1.0" encoding="utf-8"?>
<!-- Generator: Adobe Illustrator 19.0.0, SVG Export Plug-In . SVG Version: 6.00 Build 0)  -->
<svg version="1.1" id="SliderConteiner" xmlns="http://www.w3.org/2000/svg" xmlns:xlink="http://www.w3.org/1999/xlink" x="0px"
	 y="0px" viewBox="0 0 16 16" style="enable-background:new 0 0 16 16;" xml:space="preserve">
<style type="text/css">
	.st0{fill-rule:evenodd;clip-rule:evenodd;fill:#D3D3D3;}
	.st1{fill-rule:evenodd;clip-rule:evenodd;fill:#999999;}
	.st2{fill:#F85B30;}
	.st3{fill:#58595B;}
	.st4{fill-rule:evenodd;clip-rule:evenodd;fill:#4BB4DA;}
	.st5{fill-rule:evenodd;clip-rule:evenodd;fill:#93D2E9;}
	.st6{fill-rule:evenodd;clip-rule:evenodd;fill:#B7E1F0;}
	.st7{fill:#FFFFFF;}
	.st8{fill:#6D6E71;stroke:#58595B;stroke-linecap:square;stroke-miterlimit:10;}
	.st9{fill-rule:evenodd;clip-rule:evenodd;fill:#FFFFFF;}
	.st10{fill-rule:evenodd;clip-rule:evenodd;fill:#58595B;}
	.st11{fill-rule:evenodd;clip-rule:evenodd;fill:#939598;}
</style>
<g>
	<path class="st0" d="M0,0h16v16H0V0z"/>
	<polygon class="st1" points="16,6 13,3 12.3,8.6 7.6,3 3,11 8,16 16,16 	"/>
	<circle class="st2" cx="6" cy="13.4" r="0.6"/>
	<g>
		<circle class="st3" cx="8" cy="13.4" r="0.6"/>
	</g>
	<g>
		<circle class="st3" cx="10" cy="13.4" r="0.6"/>
	</g>
	<g>
		<rect x="3.5" y="3.5" class="st4" width="3.6" height="7"/>
		<path class="st2" d="M6.6,4v6H4V4H6.6 M7.6,3H3v8h4.6V3L7.6,3z"/>
	</g>
	<polygon class="st5" points="4,7.8 4,9.4 4,10.2 5.8,10.2 	"/>
	<polygon class="st6" points="5.9,5.4 4.2,10.2 6.7,10.2 6.7,7.8 	"/>
	<ellipse class="st7" cx="4.8" cy="4.8" rx="0.6" ry="0.6"/>
	<g>
		<line class="st8" x1="2" y1="8" x2="1" y2="7"/>
		<line class="st8" x1="2" y1="6" x2="1" y2="7"/>
	</g>
	<g>
		<rect x="8.9" y="3.5" class="st9" width="3.6" height="7"/>
		<path class="st2" d="M12,4v6H9.4V4H12 M13,3H8.4v8H13V3L13,3z"/>
	</g>
	<rect x="9.8" y="6.7" class="st10" width="1.8" height="0.7"/>
	<rect x="9.8" y="8.7" class="st11" width="1.8" height="0.7"/>
	<rect x="9.8" y="7.7" class="st11" width="1.8" height="0.7"/>
	<g>
		<rect x="9.2" y="3.8" class="st4" width="2.9" height="2.4"/>
	</g>
	<polygon class="st5" points="9.9,5 9.2,5.6 9.2,6.2 11.1,6.2 	"/>
	<polygon class="st6" points="11.6,4.4 9.9,6.2 12.2,6.2 12.2,5.3 	"/>
	<ellipse class="st7" cx="10.5" cy="4.6" rx="0.4" ry="0.4"/>
	<g>
		<line class="st8" x1="14" y1="6" x2="15" y2="7"/>
		<line class="st8" x1="14" y1="8" x2="15" y2="7"/>
	</g>
	<g>
		<path class="st2" d="M6.6,4v6H4V4H6.6 M7.6,3H3v8h4.6V3L7.6,3z"/>
	</g>
	<g>
		<path class="st2" d="M12,4v6H9.4V4H12 M13,3H8.4v8H13V3L13,3z"/>
	</g>
</g>
</svg>
