<?xml version="1.0" encoding="utf-8"?>
<!-- Generator: Adobe Illustrator 19.0.0, SVG Export Plug-In . SVG Version: 6.00 Build 0)  -->
<svg version="1.1" id="Tabs" xmlns="http://www.w3.org/2000/svg" xmlns:xlink="http://www.w3.org/1999/xlink" x="0px" y="0px"
	 viewBox="0 0 16 16" style="enable-background:new 0 0 16 16;" xml:space="preserve">
<style type="text/css">
	.st0{fill-rule:evenodd;clip-rule:evenodd;fill:#D3D3D3;}
	.st1{fill-rule:evenodd;clip-rule:evenodd;fill:#999999;}
	.st2{fill-rule:evenodd;clip-rule:evenodd;fill:#FFFFFF;}
	.st3{fill:#4BB4DA;}
	.st4{fill:#F85B30;}
	.st5{fill-rule:evenodd;clip-rule:evenodd;fill:#58595B;}
	.st6{fill-rule:evenodd;clip-rule:evenodd;fill:#939598;}
</style>
<g>
	<path class="st0" d="M0,0h16v16H0V0z"/>
	<g>
		<polygon class="st1" points="15,15 1,15 2,16 16,16 		"/>
	</g>
	<g>
		<polygon class="st1" points="15,15 15,2 16,3 16,16 		"/>
	</g>
	<g>
		<g>
			<rect x="6.5" y="2.5" class="st2" width="3" height="2"/>
			<path class="st3" d="M9,3v1H7V3H9 M10,2H6v3h4V2L10,2z"/>
		</g>
		<g>
			<rect x="11.5" y="2.5" class="st2" width="3" height="2"/>
			<path class="st3" d="M14,3v1h-2V3H14 M15,2h-4v3h4V2L15,2z"/>
		</g>
		<g>
			<polygon class="st2" points="1.5,14.5 1.5,1.5 4.5,1.5 4.5,4.5 14.5,4.5 14.5,14.5 			"/>
			<path class="st4" d="M4,2v2v1h1h9v9H2V2H4 M5,1H1v14h14V4H5V1L5,1z"/>
		</g>
		<rect x="3" y="6" class="st5" width="8" height="1"/>
		<rect x="3" y="8" class="st6" width="10" height="1"/>
		<rect x="3" y="10" class="st6" width="10" height="1"/>
		<rect x="3" y="12" class="st6" width="10" height="1"/>
	</g>
</g>
</svg>
