<svg version="1" xmlns="http://www.w3.org/2000/svg" width="933.333" height="933.333" viewBox="0 0 700.000000 700.000000"><path d="M0 350v350h700V0H0v350zm342-103.5V270h-80v203h-58V270h-80v-47h218v23.5zm222-4.7v18.9l-27.2 31.2c-15 17.2-27.4 31.6-27.6 32-.1.5 2.6 1.4 6 2.1 20.5 4 41.4 17.9 50.8 34 10.4 17.5 12.4 40.1 5.4 60.9-11.9 35.6-48.1 56.1-98.9 56.1-28.8-.1-56.7-5.8-77.8-16.1-8.9-4.3-17.7-9.7-17.7-10.9 0-.9 20.8-41 21.9-42.3.4-.4 4.5 1.5 9 4.3 14 8.3 30.1 13.8 47.6 15.9 19.3 2.4 32.6.8 45.2-5.4 11.6-5.7 16.4-13.4 16.4-26.2 0-12.9-4.8-20.1-17.1-25.7-7.9-3.6-16-4.6-37.2-4.6H444v-38.5l25.5-28.7c14-15.8 25.5-29 25.5-29.3 0-.3-23.8-.5-53-.5h-53v-46h175v18.8z"/></svg>