<svg height="16" viewBox="0 0 99.72 99.72" width="16" xmlns="http://www.w3.org/2000/svg"><path d="m0 0h99.72v99.72h-99.72z"/><g fill="#fff" transform="translate(-.12 -.12)"><path d="m29.23 38.57h-11.41v-6.72h31.08v6.72h-11.41v28.94h-8.26z"/><path d="m79.64 49.85a9.64 9.64 0 0 1 2.49 6.75 10.64 10.64 0 0 1 -1.63 5.74 11.29 11.29 0 0 1 -5 4.2 19.09 19.09 0 0 1 -8.18 1.58 27.75 27.75 0 0 1 -7.41-1 19.1 19.1 0 0 1 -6.19-2.82l3.28-6.3a15.56 15.56 0 0 0 4.71 2.37 18.17 18.17 0 0 0 5.48.84 8.67 8.67 0 0 0 4.86-1.21 3.84 3.84 0 0 0 1.78-3.39q0-4.38-6.67-4.38h-3.77v-5.46l7.33-8.3h-15.18v-6.62h25v5.35l-8 9.17a12 12 0 0 1 7.1 3.48z"/></g></svg>