<svg id="Lager_1" width="16" height="16" data-name="Lager 1" xmlns="http://www.w3.org/2000/svg" viewBox="0 0 99.72 99.72"><defs><style>.cls-1{fill:#fff;}</style></defs><title>t3kit</title><rect id="Rectangle_258" data-name="Rectangle 258" width="99.72" height="99.72"/><path class="cls-1" d="M29.23,38.57H17.82V31.85H48.9v6.72H37.49V67.51H29.23Z" transform="translate(-0.12 -0.12)"/><path class="cls-1" d="M79.64,49.85a9.64,9.64,0,0,1,2.49,6.75,10.64,10.64,0,0,1-1.63,5.74,11.29,11.29,0,0,1-5,4.2,19.09,19.09,0,0,1-8.18,1.58,27.75,27.75,0,0,1-7.41-1,19.1,19.1,0,0,1-6.19-2.82L57,58a15.56,15.56,0,0,0,4.71,2.37,18.17,18.17,0,0,0,5.48.84A8.67,8.67,0,0,0,72.05,60a3.84,3.84,0,0,0,1.78-3.39q0-4.38-6.67-4.38H63.39V46.77l7.33-8.3H55.54V31.85h25V37.2l-8,9.17A12,12,0,0,1,79.64,49.85Z" transform="translate(-0.12 -0.12)"/></svg>
