<?xml version="1.0" standalone="no"?>
<!DOCTYPE svg PUBLIC "-//W3C//DTD SVG 20010904//EN"
 "http://www.w3.org/TR/2001/REC-SVG-20010904/DTD/svg10.dtd">
<svg version="1.0" xmlns="http://www.w3.org/2000/svg"
 width="16.000000pt" height="16.000000pt" viewBox="0 0 16.000000 16.000000"
 preserveAspectRatio="xMidYMid meet">
<metadata>
Created by potrace 1.11, written by Peter Selinger 2001-2013
</metadata>
<g transform="translate(0.000000,16.000000) scale(0.006154,-0.006154)"
fill="#000000" stroke="none">
<path d="M1142 1933 c0 -180 -1 -340 -1 -355 l-1 -28 -120 0 c-89 0 -120 3
-121 13 -1 6 -1 69 -1 140 0 70 -3 127 -7 127 -12 0 -154 -57 -233 -93 l-78
-36 0 -76 0 -75 -78 0 -78 0 1 -137 0 -138 78 2 77 1 1 -311 c1 -172 3 -321 4
-333 15 -135 66 -218 164 -265 37 -18 65 -22 141 -23 52 -1 122 3 155 8 33 5
134 10 225 10 l165 2 2 60 c1 32 2 61 3 64 2 5 1 35 -1 147 -1 50 1 55 61 127
l63 75 140 -232 c77 -128 142 -234 144 -236 2 -3 77 -5 167 -5 l164 -1 -26 45
c-15 25 -45 73 -67 107 -22 35 -56 89 -76 120 -20 32 -87 138 -148 235 -61 98
-111 180 -111 184 0 3 33 45 73 93 39 48 88 107 107 131 19 24 42 51 50 60 21
23 90 108 90 112 0 2 -73 3 -161 2 -132 0 -164 -3 -173 -16 -20 -27 -61 -80
-71 -91 -6 -7 -36 -46 -66 -87 -100 -133 -144 -187 -153 -189 -5 0 -9 85 -10
189 0 105 3 190 7 190 5 0 5 5 2 11 -4 6 -7 79 -6 162 1 183 1 230 0 282 0 22
0 45 1 50 1 6 1 15 0 20 -1 6 -2 60 -2 122 l1 111 -47 11 c-51 11 -90 18 -137
25 -16 2 -49 7 -71 11 l-42 6 0 -328z m-1 -677 c3 -80 0 -618 -3 -621 -2 -3
-20 -7 -39 -10 -138 -20 -184 -8 -195 52 -6 30 -9 445 -5 574 l1 26 120 0
c115 0 120 -1 121 -21z"/>
</g>
</svg>
