<svg version="1" xmlns="http://www.w3.org/2000/svg" width="341.333" height="341.333" viewBox="0 0 256.000000 256.000000"><path d="M107 47.5V95H74V76c0-10.5-.2-19-.4-19-.7 0-23 9.1-29.1 11.9-3.3 1.5-7.5 3.4-9.2 4.2L32 74.5V95H12v36h20v38.7c0 40.6.8 52.9 3.9 61.8 4 11.4 11.8 18.9 23.1 22.2 6.7 2 22.6 2 35.5.1 5.3-.8 17.7-1.3 30.3-1.3H146v-43.1l8.6-10.2 8.7-10.3 2.3 3.8c1.3 2.1 9.9 16.3 19.1 31.6l16.8 27.8 21.7.2c21.5.2 21.7.2 20.4-1.8-1.8-2.7-36.9-58.7-47.8-76-7.4-11.9-8.5-14.2-7.4-15.5 1.6-1.8 39.4-47.9 40.9-49.8.7-.9-3.5-1.2-20.4-1.1h-21.4L167 135.2l-20.5 27.1-.3-77.7L146 7l-2.3-.5C133.2 4.1 127.3 3 120 2c-4.7-.6-9.5-1.3-10.7-1.5L107 0v47.5zm0 126.9v43.4l-8.4 1.2c-11.5 1.7-18 1-21.4-2.4l-2.7-2.6-.3-41.5-.3-41.5H107v43.4z"/></svg>