<svg fill="none" height="120" viewBox="0 0 80 120" width="80" xmlns="http://www.w3.org/2000/svg"><path d="m4 3h74v114h-74z" fill="#fff"/><path d="m4 3h74v5h-74z" fill="#c1c1c1"/><path d="m4 105h74v12h-74z" fill="#c1c1c1"/><path d="m4 10h74v18h-74z" fill="#c1c1c1"/><path d="m4 30h55v73h-55z" fill="#848484"/><path d="m61 31h17v66h-17z" fill="#c1c1c1"/><path d="m61 30h17v73h-17z" fill="#848484"/><g fill="#c1c1c1"><path d="m67 32h9v2h-9z"/><path d="m67 37h9v2h-9z"/><path d="m67 42h9v2h-9z"/><path d="m67 47h9v2h-9z"/><path d="m67 52h9v2h-9z"/><path d="m67 57h9v2h-9z"/><path d="m67 62h9v2h-9z"/><path d="m67 67h9v2h-9z"/><path d="m63 32h2v2h-2z"/><path d="m63 37h2v2h-2z"/><path d="m63 42h2v2h-2z"/><path d="m63 47h2v2h-2z"/><path d="m63 52h2v2h-2z"/><path d="m63 57h2v2h-2z"/><path d="m63 62h2v2h-2z"/><path d="m63 67h2v2h-2z"/></g></svg>