<svg fill="none" height="120" viewBox="0 0 80 120" width="80" xmlns="http://www.w3.org/2000/svg"><path d="m3 3h74v114h-74z" fill="#fff"/><path d="m3 3h74v5h-74z" fill="#c1c1c1"/><path d="m3 105h74v12h-74z" fill="#c1c1c1"/><path d="m3 10h74v18h-74z" fill="#c1c1c1"/><path d="m28 30h24v73h-24z" fill="#848484"/><path d="m60 33h17v66h-17z" fill="#c1c1c1"/><path d="m54 30h23v73h-23z" fill="#848484"/><path d="m3 30h23v73h-23z" fill="#848484"/><g fill="#c1c1c1"><path d="m60 32h15v2h-15z"/><path d="m60 37h15v2h-15z"/><path d="m60 42h15v2h-15z"/><path d="m60 47h15v2h-15z"/><path d="m60 52h15v2h-15z"/><path d="m60 57h15v2h-15z"/><path d="m60 62h15v2h-15z"/><path d="m60 67h15v2h-15z"/><path d="m56 32h2v2h-2z"/><path d="m56 37h2v2h-2z"/><path d="m56 42h2v2h-2z"/><path d="m56 47h2v2h-2z"/><path d="m56 52h2v2h-2z"/><path d="m56 57h2v2h-2z"/><path d="m56 62h2v2h-2z"/><path d="m56 67h2v2h-2z"/></g></svg>