<svg viewBox="0 0 50 75" width="80" xmlns="http://www.w3.org/2000/svg"><path d="m2 2h46v5h-46z" fill="gray"/><path d="m2 9h46v8.999999h-46z" fill="#ccc" stroke-width=".728"/><g fill="gray"><circle cx="39.95" cy="12.19" r="1.174" stroke-width=".577"/><path d="m30.32 15-9.32 11h18.64z" transform="matrix(.6111905 0 0 .51219911 13.165 4.682823)"/><path d="m39.94 19.03-6.06 6.97h12.12z" transform="matrix(.6111905 0 0 .51219911 12.885237 4.682823)"/></g><path d="m4 14.527339h16v1.472661h-16z" fill="#fff" stroke-width="1.114"/><path d="m4 11h21v1.529987h-21z" fill="#fff" stroke-width=".855"/><path d="m2 68h46v5h-46z" fill="gray"/><path d="m2 61h46v4.999999h-46z" fill="#ccc" stroke-width=".542"/><path d="m2 20h14v1h-14z" fill="gray" stroke-width=".564"/><path d="m17 20h9v1h-9z" fill="gray" stroke-width=".452"/><path d="m27 20h6v1h-6z" fill="gray" stroke-width=".369"/><text fill="#fff" font-family="Arial Black" font-size="4.246" stroke-width=".106" x="2.693" y="6.028"><tspan fill="#fff" stroke-width=".106" x="2.693" y="6.028">HEADER</tspan></text><text fill="#fff" font-family="Arial Black" font-size="4.161" stroke-width=".104" x="2.7" y="71.988"><tspan fill="#fff" stroke-width=".104" x="2.7" y="71.988">FOOTER</tspan></text><path d="m14 23h34v36h-34z" fill="#ccc" stroke-width=".926"/><path d="m2 23h10v36h-10z" fill="#ccc" stroke-width=".502"/></svg>