<svg fill="none" height="120" viewBox="0 0 80 120" width="80" xmlns="http://www.w3.org/2000/svg"><path d="m3 3h74v114h-74z" fill="#fff"/><g fill="#c1c1c1"><path d="m3 3h74v5h-74z"/><path d="m3 105h74v12h-74z"/><path d="m3 10h74v18h-74z"/></g><path d="m22 30h36v73h-36z" fill="#848484"/><path d="m60 31h17v66h-17z" fill="#c1c1c1"/><path d="m60 30h17v73h-17z" fill="#848484"/><path d="m3 30h17v73h-17z" fill="#848484"/><g fill="#c1c1c1"><path d="m66 32h9v2h-9z"/><path d="m66 37h9v2h-9z"/><path d="m66 42h9v2h-9z"/><path d="m66 47h9v2h-9z"/><path d="m66 52h9v2h-9z"/><path d="m66 57h9v2h-9z"/><path d="m66 62h9v2h-9z"/><path d="m66 67h9v2h-9z"/><path d="m62 32h2v2h-2z"/><path d="m62 37h2v2h-2z"/><path d="m62 42h2v2h-2z"/><path d="m62 47h2v2h-2z"/><path d="m62 52h2v2h-2z"/><path d="m62 57h2v2h-2z"/><path d="m62 62h2v2h-2z"/><path d="m62 67h2v2h-2z"/></g></svg>