<svg viewBox="0 0 50 75" width="80" xmlns="http://www.w3.org/2000/svg"><path d="m2 2h46v5h-46z" fill="#808080"/><path d="m2 9h46v8.999999h-46z" fill="#ccc" stroke-width=".727606"/><g fill="#808080"><circle cx="39.9496" cy="12.189573" r="1.174053" stroke-width=".577071"/><path d="m30.32 15-9.32 11h18.64z" transform="matrix(.6111905 0 0 .51219911 13.165 4.682823)"/><path d="m39.94 19.03-6.06 6.97h12.12z" transform="matrix(.6111905 0 0 .51219911 12.885237 4.682823)"/></g><path d="m4 14.527339h16v1.472661h-16z" fill="#fff" stroke-width="1.11361"/><path d="m4 11h21v1.529987h-21z" fill="#fff" stroke-width=".854529"/><path d="m2 68h46v5h-46z" fill="#808080"/><path d="m2 61h46v4.999999h-46z" fill="#ccc" stroke-width=".542325"/><path d="m2 20h14v1h-14z" fill="#808080" stroke-width=".564076"/><path d="m17 20h9v1h-9z" fill="#808080" stroke-width=".452267"/><path d="m27 20h6v1h-6z" fill="#808080" stroke-width=".369274"/><text fill="#fff" font-family="Arial Black" font-size="4.24562" stroke-width=".10614" x="2.693239" y="6.027884"><tspan fill="#fff" stroke-width=".10614" x="2.693239" y="6.027884">HEADER</tspan></text><text fill="#fff" font-family="Arial Black" font-size="4.16121" stroke-width=".10403" x="2.6999" y="71.987831"><tspan fill="#fff" stroke-width=".10403" x="2.6999" y="71.987831">FOOTER</tspan></text><path d="m14 23h22v36h-22z" fill="#ccc" stroke-width=".74525"/><path d="m38 23h10v36h-10z" fill="#ccc" stroke-width=".502447"/><path d="m2 23h10v36h-10z" fill="#ccc" stroke-width=".502447"/></svg>