<?xml version="1.0" encoding="utf-8"?>
<!-- Generator: Adobe Illustrator 19.0.0, SVG Export Plug-In . SVG Version: 6.00 Build 0)  -->
<svg version="1.1" id="content-sidebar" xmlns="http://www.w3.org/2000/svg" xmlns:xlink="http://www.w3.org/1999/xlink" x="0px"
	 y="0px" viewBox="0 0 100 150" style="enable-background:new 0 0 100 150;" xml:space="preserve" width="50px">
<style type="text/css">
	.st0{fill:#E6E6E6;}
	.st1{fill:#7FB585;}
	.st2{fill:#FFFFFF;}
	.st3{fill:#898989;}
	.st4{fill-rule:evenodd;clip-rule:evenodd;fill:#FFFFFF;}
</style>
<g id="header-footer_8_">
	<g>
		<path class="st0" d="M0,0v15h100V0H0z M0,150h100v-13H0V150z"/>
	</g>
</g>
<g id="sidebar_copy_2">
	<g id="Rectangle_3_copy_2_4_">
		<g>
			<rect x="73" y="19" class="st1" width="23" height="114"/>
		</g>
	</g>
	<g id="frame_4_4_">
		<g>
			<path class="st2" d="M77,103v1.9l0,0l0,0V129h15v-26H77z M90,105L90,105l-5.3,9.1l-5.4-9.1H90z M79,108.3l4.5,7.7l-4.5,7.7V108.3
				z M79.3,127l5.4-9.1L90,127v0H79.3z M85.8,116l4.2-7.2v14.3L85.8,116z"/>
		</g>
	</g>
	<g id="frame_3_4_">
		<g>
			<path class="st2" d="M90.5,65L90.5,65L90.5,65H77v34h15V65H90.5z M89.7,67l-5.3,12.9L79.1,67H89.7z M83.5,82.1L79,92.9V71.1
				L83.5,82.1z M79.1,97l5.3-12.7L89.5,97H79.1z M85.3,82.1L90,70.6v23.2L85.3,82.1z"/>
		</g>
	</g>
	<g id="frame_2_4_">
		<g>
			<path class="st2" d="M77,46v1.1l0,0l0,0V61h15V46H77z M89.2,48l-4.5,4.4L80.2,48H89.2z M79,49.1l4.5,4.4L79,57.9V49.1z
				 M84.7,54.6l4.5,4.4h-9L84.7,54.6z M85.8,53.5l4.2-4.1v8.3L85.8,53.5z"/>
		</g>
	</g>
	<g id="frame_1_4_">
		<g>
			<path class="st2" d="M77,23v1.4l0,0l0,0V42h1.1l0,0.1l0-0.1H92V23H77z M89.6,25l-4.9,6.1L79.7,25H89.6z M79,26.9l4.5,5.6L79,38.2
				V26.9z M84.7,33.9l4.9,6.1h-9.8L84.7,33.9z M85.8,32.5l4.2-5.2v10.5L85.8,32.5z"/>
		</g>
	</g>
</g>
<g id="content_copy_4">
	<g id="text_rows_8_">
		<g>
			<path class="st3" d="M69,60H4v2h65V60z M4,92h65.1v-2H4V92z M69,66H4v2h65V66z M69,72H4v2h65V72z M4,80h65.1v-2H4V80z M4,86h65.1
				v-2H4V86z M4,24v2h65.1v-2H4z M4,98h65.1v-2H4V98z M4,104h65.1v-2H4V104z M4,38h65.1v-2H4V38z M4,44h65.1v-2H4V44z M69,48H4v2h65
				V48z M69,54H4v2h65V54z M4,32h65.1v-2H4V32z M4,110h65.1v-2H4V110z M4,116h65.1v-2H4V116z M4,122h65.1v-2H4V122z M4,128h65.1v-2
				H4V128z"/>
		</g>
	</g>
	<rect x="29" y="66" class="st4" width="40" height="26"/>
	<rect x="4" y="29" class="st4" width="21" height="23"/>
	<g id="picture_small_8_">
		<g>
			<path class="st3" d="M4,30v20h19V30H4z M9,48l6-7l6,7H9z M21,45.6l-6.3-7.4l-3.3,4.1L10,41l-4,5.3V32h15V45.6z"/>
		</g>
	</g>
	<g id="picture_big_8_">
		<g>
			<path class="st3" d="M31,66v26h38V66H31z M34.9,90l6.8-10l2.9,3l-4.9,7H34.9z M42.7,90l10.7-15l11.7,15H42.7z M67,89.5L53.4,72
				l-7.2,9.6L41.7,77L33,89.3V68H67V89.5z"/>
		</g>
	</g>
</g>
</svg>
