<?xml version="1.0" encoding="utf-8"?>
<!-- Generator: Adobe Illustrator 19.0.0, SVG Export Plug-In . SVG Version: 6.00 Build 0)  -->
<svg version="1.1" id="content_2_" xmlns="http://www.w3.org/2000/svg" xmlns:xlink="http://www.w3.org/1999/xlink" x="0px" y="0px"
	 viewBox="0 0 100 150" style="enable-background:new 0 0 100 150;" xml:space="preserve" width="50px">
<style type="text/css">
	.st0{fill:#E6E6E6;}
	.st1{fill:#898989;}
	.st2{display:none;}
	.st3{display:inline;}
	.st4{fill:#7FB585;}
	.st5{fill:#FFFFFF;}
	.st6{fill:#F7B685;}
</style>
<g id="header-footer_26_">
	<g>
		<path class="st0" d="M0,0v15h100V0H0z M0,150h100v-13H0V150z"/>
	</g>
</g>
<g id="content_copy_12_2_">
	<g id="text_rows_26_">
		<g>
			<path class="st1" d="M51,104h45v-2H51V104z M4,116h92v-2H4V116z M4,110h92v-2H4V110z M4,122h92v-2H4V122z M75,42H4v2h71V42z
				 M75,36H4v2h71V36z M42,56h33v-2H4v2L42,56L42,56z M42,50h33v-2H4v2L42,50L42,50z M4,128h92v-2H4V128z M4,32h92v-2H4V32z M4,62
				h38v0h54v-2H4V62z M4,24v2h92v-2H4z M4,68h38v0h54v-2H4V68z M51,86h45v-2H51V86z M51,98h45v-2H51V98z M51,92h45v-2H51V92z M51,74
				h45v-2H51V74z M51,80h45v-2H51V80z"/>
		</g>
	</g>
	<g id="picture_small_26_">
		<g>
			<path class="st1" d="M77,36v20h19V36H77z M82,54l6-7l6,7H82z M94,51.6l-6.3-7.4l-3.3,4.1L83,47l-4,5.3V38h15V51.6z"/>
		</g>
	</g>
	<g id="picture_big_26_">
		<g>
			<path class="st1" d="M4,72v32h45V72H4z M8.6,101.6L17,89.5l3.8,3.7l-6.4,8.4H8.6z M17.2,102l13.3-18.1L44.7,102H17.2z M47,101.4
				L30.6,80.3L22,91.6l-5.2-5.4L6,101.2V74h41V101.4z"/>
		</g>
	</g>
</g>
<g id="content-menu-sidebar_copy_2" class="st2">
	<g id="header-footer_24_" class="st3">
		<g>
			<path class="st0" d="M0,0v15h100V0H0z M0,150h100v-13H0V150z"/>
		</g>
	</g>
	<g id="sidebar_copy_9" class="st3">
		<g id="Rectangle_3_copy_2_18_">
			<g>
				<rect x="77" y="19" class="st4" width="23" height="114"/>
			</g>
		</g>
		<g id="frame_4_18_">
			<g>
				<path class="st5" d="M81,103v1.9l0,0l0,0V129h15v-26H81z M94,105L94,105l-5.3,9.1l-5.4-9.1H94z M83,108.3l4.5,7.7l-4.5,7.7
					V108.3z M83.3,127l5.4-9.1L94,127v0H83.3z M89.8,116l4.2-7.2v14.3L89.8,116z"/>
			</g>
		</g>
		<g id="frame_3_18_">
			<g>
				<path class="st5" d="M94.5,65L94.5,65L94.5,65H81v34h15V65H94.5z M93.7,67l-5.3,12.9L83.1,67H93.7z M87.5,82.1L83,92.9V71.1
					L87.5,82.1z M83.1,97l5.3-12.7L93.5,97H83.1z M89.3,82.1L94,70.6v23.2L89.3,82.1z"/>
			</g>
		</g>
		<g id="frame_2_18_">
			<g>
				<path class="st5" d="M81,46v1.1l0,0l0,0V61h15V46H81z M93.2,48l-4.5,4.4L84.2,48H93.2z M83,49.1l4.5,4.4L83,57.9V49.1z
					 M88.7,54.6l4.5,4.4h-9L88.7,54.6z M89.8,53.5l4.2-4.1v8.3L89.8,53.5z"/>
			</g>
		</g>
		<g id="frame_1_18_">
			<g>
				<path class="st5" d="M81,23v1.4l0,0l0,0V42h1.1l0,0.1l0-0.1H96V23H81z M93.6,25l-4.9,6.1L83.7,25H93.6z M83,26.9l4.5,5.6
					L83,38.2V26.9z M88.7,33.9l4.9,6.1h-9.8L88.7,33.9z M89.8,32.5l4.2-5.2v10.5L89.8,32.5z"/>
			</g>
		</g>
	</g>
	<g id="menu_copy_9" class="st3">
		<g id="Rectangle_3_copy_18_">
			<g>
				<rect x="50" y="19" class="st6" width="23" height="114"/>
			</g>
		</g>
		<g id="Rectangle_4_copy_2_18_">
			<g>
				<path class="st5" d="M59,23v2h10v-2H59z M57,23h-3v2h3V23z M59,31h10v-2H59V31z M54,31h3v-2h-3V31z M59,37h10v-2H59V37z M54,37
					h3v-2h-3V37z M59,43h10v-2H59V43z M54,43h3v-2h-3V43z M59,49h10v-2H59V49z M54,49h3v-2h-3V49z"/>
			</g>
		</g>
	</g>
	<g id="content_copy_12_1_" class="st3">
		<g id="text_rows_24_">
			<g>
				<path class="st1" d="M4,122h38v-2H4V122z M4,128h38v-2H4V128z M21,114H4v2h17V114z M21,102H4v2h17V102z M21,108H4v2h17V108z
					 M4,98h17v-2h21v0H4V98z M4,86h38v-2H4V86z M4,32h38v-2H4V32z M4,24v2h38v-2H4z M4,38h38v-2H4V38z M4,44h38v-2H4V44z M4,80h38
					v-2H4V80z M4,92h38v-2H4V92z"/>
			</g>
		</g>
		<g id="picture_small_24_">
			<g>
				<path class="st1" d="M23,96v20h19V96H23z M28,114l6-7l6,7H28z M40,111.6l-6.3-7.4l-3.3,4.1L29,107l-4,5.3V98h15V111.6z"/>
			</g>
		</g>
		<g id="picture_big_24_">
			<g>
				<path class="st1" d="M4,48v27h38V48H4z M7.9,73l6.8-10l2.9,3l-4.9,7H7.9z M15.7,73l10.7-15l11.7,15H15.7z M40,72.5L26.4,55
					l-7.2,9.6L14.7,60L6,72.3V50H40V72.5z"/>
			</g>
		</g>
	</g>
</g>
</svg>
