<?xml version="1.0" encoding="utf-8"?>
<!-- Generator: Adobe Illustrator 19.0.0, SVG Export Plug-In . SVG Version: 6.00 Build 0)  -->
<svg version="1.1" id="menu-content-sidebar" xmlns="http://www.w3.org/2000/svg" xmlns:xlink="http://www.w3.org/1999/xlink"
	 x="0px" y="0px" viewBox="0 0 100 150" style="enable-background:new 0 0 100 150;" xml:space="preserve" width="50px">
<style type="text/css">
	.st0{fill:#E6E6E6;}
	.st1{fill:#7FB585;}
	.st2{fill:#FFFFFF;}
	.st3{fill:#F7B685;}
	.st4{fill:#898989;}
</style>
<g id="header-footer_14_">
	<g>
		<path class="st0" d="M0,0v15h100V0H0z M0,150h100v-13H0V150z"/>
	</g>
</g>
<g id="sidebar_copy_4">
	<g id="Rectangle_3_copy_2_8_">
		<g>
			<rect x="73" y="19" class="st1" width="23" height="114"/>
		</g>
	</g>
	<g id="frame_4_8_">
		<g>
			<path class="st2" d="M77,103v1.9l0,0l0,0V129h15v-26H77z M90,105L90,105l-5.3,9.1l-5.4-9.1H90z M79,108.3l4.5,7.7l-4.5,7.7V108.3
				z M79.3,127l5.4-9.1L90,127v0H79.3z M85.8,116l4.2-7.2v14.3L85.8,116z"/>
		</g>
	</g>
	<g id="frame_3_8_">
		<g>
			<path class="st2" d="M90.5,65L90.5,65L90.5,65H77v34h15V65H90.5z M89.7,67l-5.3,12.9L79.1,67H89.7z M83.5,82.1L79,92.9V71.1
				L83.5,82.1z M79.1,97l5.3-12.7L89.5,97H79.1z M85.3,82.1L90,70.6v23.2L85.3,82.1z"/>
		</g>
	</g>
	<g id="frame_2_8_">
		<g>
			<path class="st2" d="M77,46v1.1l0,0l0,0V61h15V46H77z M89.2,48l-4.5,4.4L80.2,48H89.2z M79,49.1l4.5,4.4L79,57.9V49.1z
				 M84.7,54.6l4.5,4.4h-9L84.7,54.6z M85.8,53.5l4.2-4.1v8.3L85.8,53.5z"/>
		</g>
	</g>
	<g id="frame_1_8_">
		<g>
			<path class="st2" d="M77,23v1.4l0,0l0,0V42h1.1l0,0.1l0-0.1H92V23H77z M89.6,25l-4.9,6.1L79.7,25H89.6z M79,26.9l4.5,5.6L79,38.2
				V26.9z M84.7,33.9l4.9,6.1h-9.8L84.7,33.9z M85.8,32.5l4.2-5.2v10.5L85.8,32.5z"/>
		</g>
	</g>
</g>
<g id="menu_copy_5">
	<g id="Rectangle_3_copy_10_">
		<g>
			<rect x="4" y="19" class="st3" width="23" height="114"/>
		</g>
	</g>
	<g id="Rectangle_4_copy_2_10_">
		<g>
			<path class="st2" d="M13,23v2h10v-2H13z M11,23H8v2h3V23z M13,31h10v-2H13V31z M8,31h3v-2H8V31z M13,37h10v-2H13V37z M8,37h3v-2
				H8V37z M13,43h10v-2H13V43z M8,43h3v-2H8V43z M13,49h10v-2H13V49z M8,49h3v-2H8V49z"/>
		</g>
	</g>
</g>
<g id="content_copy_7">
	<g id="text_rows_14_">
		<g>
			<path class="st4" d="M31,44h38v-2H31V44z M31,80h38v-2H31V80z M31,38h38v-2H31V38z M31,32h38v-2H31V32z M31,86h38v-2H31V86z
				 M31,24v2h38v-2H31z M31,122h38v-2H31V122z M47.6,108H31v2h16.6V108z M47.6,114H31v2h16.6V114z M31,128h38v-2H31V128z M31,92h38
				v-2H31V92z M47.6,102H31v2h16.6V102z M31,98h16.6v-2H69v0H31V98z"/>
		</g>
	</g>
	<g id="picture_small_14_">
		<g>
			<path class="st4" d="M50,96v20h19V96H50z M55,114l6-7l6,7H55z M67,111.6l-6.3-7.4l-3.3,4.1L56,107l-4,5.3V98h15V111.6z"/>
		</g>
	</g>
	<g id="picture_big_14_">
		<g>
			<path class="st4" d="M31,48v27h38V48H31z M34.9,73l6.8-10l2.9,3l-4.9,7H34.9z M42.7,73l10.7-15l11.7,15H42.7z M67,72.5L53.4,55
				l-7.2,9.6L41.7,60L33,72.3V50H67V72.5z"/>
		</g>
	</g>
</g>
</svg>
