<svg fill="none" height="120" viewBox="0 0 80 120" width="80" xmlns="http://www.w3.org/2000/svg"><path d="m4 3h74v114h-74z" fill="#fff"/><path d="m61 30h17v73h-17z" fill="#848484"/><path d="m4 3h74v5h-74z" fill="#c1c1c1"/><path d="m4 105h74v12h-74z" fill="#c1c1c1"/><path d="m4 10h74v18h-74z" fill="#c1c1c1"/><g fill="#848484"><path d="m42 30h17v73h-17z"/><path d="m23 30h17v73h-17z"/><path d="m4 30h17v73h-17z"/></g><g fill="#c1c1c1"><path d="m10 32h9v2h-9z"/><path d="m10 37h9v2h-9z"/><path d="m10 42h9v2h-9z"/><path d="m10 47h9v2h-9z"/><path d="m10 52h9v2h-9z"/><path d="m10 57h9v2h-9z"/><path d="m10 62h9v2h-9z"/><path d="m10 67h9v2h-9z"/><path d="m6 32h2v2h-2z"/><path d="m6 37h2v2h-2z"/><path d="m6 42h2v2h-2z"/><path d="m6 47h2v2h-2z"/><path d="m6 52h2v2h-2z"/><path d="m6 57h2v2h-2z"/><path d="m6 62h2v2h-2z"/><path d="m6 67h2v2h-2z"/></g></svg>