<svg fill="none" height="120" viewBox="0 0 80 120" width="80" xmlns="http://www.w3.org/2000/svg"><path d="m3 5h74v112h-74z" fill="#fff"/><path d="m3 11h74v38h-74z" fill="#848484"/><path d="m3 105h74v12h-74z" fill="#848484"/><path d="m28 74h24v12h-24z" fill="#848484"/><path d="m54 74h23v12h-23z" fill="#848484"/><path d="m3 74h23v12h-23z" fill="#848484"/><path d="m3 88h23v2h-23z" fill="#c1c1c1"/><path d="m3 92h23v2h-23z" fill="#c1c1c1"/><path d="m3 96h12v4h-12z" fill="#848484"/><g fill="#c1c1c1"><path d="m7 19h31v2h-31z"/><path d="m7 15h31v2h-31z"/><path d="m7 23h23v2h-23z"/><path d="m7 28h12v4h-12z"/><path d="m28 88h24v2h-24z"/><path d="m28 92h24v2h-24z"/></g><path d="m28 96h12v4h-12z" fill="#848484"/><path d="m54 88h23v2h-23z" fill="#c1c1c1"/><path d="m54 92h23v2h-23z" fill="#c1c1c1"/><path d="m54 96h12v4h-12z" fill="#848484"/><path d="m3 3h74v5h-74z" fill="#848484"/><path d="m3 53h36v17h-36z" fill="#c1c1c1"/><path d="m9 59h24v2h-24z" fill="#fff"/><path d="m13 63h16v2h-16z" fill="#fff"/><path d="m41 53h36v17h-36z" fill="#c1c1c1"/><path d="m47 59h24v2h-24z" fill="#fff"/><path d="m51 63h16v2h-16z" fill="#fff"/><path d="m73 45-14-14.0974-7 5.9026-8-11.8052-17 20z" fill="#fff"/><path d="m65 24.3c2.2091 0 4-1.7909 4-4 0-2.2092-1.7909-4-4-4s-4 1.7908-4 4c0 2.2091 1.7909 4 4 4z" fill="#fff"/></svg>