<svg viewBox="0 0 50 75" width="80" xmlns="http://www.w3.org/2000/svg"><path d="m2 2h46.026318v23h-46.026318z" fill="#ccc" stroke-width=".979231"/><path d="m10 4h5.000001v2h-5.000001z" fill="#fff" stroke-width=".912869"/><circle cx="37.524391" cy="12.315986" fill="#666" r="2" stroke-width=".98304"/><path d="m21 26h18.64l-9.32-11z" fill="#666" transform="matrix(.97631577 0 0 .97631577 -.077578 -.38421)"/><path d="m33.88 26h12.12l-6.06-6.97z" fill="#666" transform="matrix(.97631577 0 0 .97631577 -.077578 -.38421)"/><path d="m5 17h11.519999v1.38547h-11.519999z" fill="#fff" stroke-width="1.10803"/><path d="m2 61h46.026318v4.999997h-46.026318z" fill="#ccc" stroke-width=".674393"/><circle cx="5.631774" cy="5.011829" fill="#fff" r="1.569079" stroke-width="1.03249"/><path d="m5 10h20v2h-20z" fill="#fff" stroke-width=".953453"/><path d="m5 20h6v1.999999h-6z" fill="#fff" stroke-width=".999997"/><path d="m3 27h20v1.394737h-20z" fill="#999" stroke-width="1.12602"/><path d="m10 35.907894h6v2.092106h-6z" fill="#666" stroke-width="1.02276"/><path d="m5 14h16v1.38547h-16z" fill="#fff" stroke-width="1.30583"/><path d="m27 27h20.000002v1.394737h-20.000002z" fill="#999" stroke-width="1.12602"/><path d="m3 29.789474h20v1.394737h-20z" fill="#999" stroke-width="1.12602"/><path d="m3.000002 32.578941h20v1.394737h-20z" fill="#999" stroke-width="1.12602"/><path d="m27 29.789474h20.000002v1.394737h-20.000002z" fill="#999" stroke-width="1.12602"/><path d="m27.000002 32.578941h20.000002v1.394737h-20.000002z" fill="#999" stroke-width="1.12602"/><path d="m34 41h14.000001v8.000002h-14.000001z" fill="#ccc" stroke-width="1.06905"/><path d="m18 41h14.000001v8.000002h-14.000001z" fill="#ccc" stroke-width="1.06905"/><path d="m2 41h14v8.000002h-14z" fill="#ccc" stroke-width="1.06905"/><g fill="#666" transform="translate(0 -1)"><ellipse cx="44.362411" cy="45.718185" rx="1.166014" ry="1.168808" stroke-width=".919482"/><g transform="matrix(.37557052 0 0 .37557052 28.275671 40.235166)"><path d="m30.32 15-9.32 11h18.64z"/><path d="m39.94 19.03-6.06 6.97h12.12z"/></g></g><path d="m2 51h14v1.394739h-14z" fill="#999" stroke-width="1.1743"/><path d="m2 53.789473h14v1.39474h-14z" fill="#999" stroke-width="1.1743"/><path d="m2 56.578948h14v1.394739h-14z" fill="#999" stroke-width="1.1743"/><path d="m18 4h5.000001v2h-5.000001z" fill="#fff" stroke-width=".912869"/><path d="m26 4h5.000001v2h-5.000001z" fill="#fff" stroke-width=".912869"/><path d="m34 4h5.000001v2h-5.000001z" fill="#fff" stroke-width=".912869"/><path d="m42 4h4v2h-4z" fill="#fff" stroke-width=".816495"/><path d="m34 36h6v2.092106h-6z" fill="#666" stroke-width="1.02276"/><g fill="#666" transform="translate(-16 -1)"><ellipse cx="44.362411" cy="45.718185" rx="1.166014" ry="1.168808" stroke-width=".919482"/><g transform="matrix(.37557052 0 0 .37557052 28.275671 40.235166)"><path d="m39.64 26-9.32-11-9.32 11z"/><path d="m46 26-6.06-6.97-6.06 6.97z"/></g></g><g fill="#666" transform="translate(-32 -1)"><ellipse cx="44.362411" cy="45.718185" rx="1.166014" ry="1.168808" stroke-width=".919482"/><g transform="matrix(.37557052 0 0 .37557052 28.275671 40.235166)"><path d="m21 26h18.64l-9.32-11z"/><path d="m33.88 26h12.12l-6.06-6.97z"/></g></g><g fill="#999"><path d="m18 51h14v1.394739h-14z" stroke-width="1.1743"/><path d="m18 53.789473h14v1.39474h-14z" stroke-width="1.1743"/><path d="m18 56.578948h14v1.394739h-14z" stroke-width="1.1743"/><path d="m34 51h14v1.394739h-14z" stroke-width="1.1743"/><path d="m34 53.789473h14v1.39474h-14z" stroke-width="1.1743"/><path d="m34 56.578948h14v1.394739h-14z" stroke-width="1.1743"/></g><path d="m2 68h46v5h-46z" fill="#808080"/></svg>