<?xml version="1.0" encoding="utf-8"?>
<!-- Generator: Adobe Illustrator 19.0.0, SVG Export Plug-In . SVG Version: 6.00 Build 0)  -->
<svg version="1.1" id="top_content-content-sidebar"
	 xmlns="http://www.w3.org/2000/svg" xmlns:xlink="http://www.w3.org/1999/xlink" x="0px" y="0px" viewBox="0 0 100 150"
	 style="enable-background:new 0 0 100 150;" xml:space="preserve" width="50px">
<style type="text/css">
	.st0{fill:#E6E6E6;}
	.st1{fill:#C5D6ED;}
	.st2{fill-rule:evenodd;clip-rule:evenodd;fill:#898989;}
	.st3{fill:#898989;}
	.st4{fill-rule:evenodd;clip-rule:evenodd;fill:#FFFFFF;}
	.st5{fill:#7FB585;}
	.st6{fill:#FFFFFF;}
</style>
<g id="header-footer_34_">
	<g>
		<path class="st0" d="M0,0v15h100V0H0z M0,150h100v-13H0V150z"/>
	</g>
</g>
<g id="content_copy_17">
</g>
<rect x="4" y="19" class="st1" width="92" height="31"/>
<rect x="51" y="30" class="st2" width="41" height="2"/>
<rect x="51" y="23" class="st2" width="41" height="2"/>
<rect x="51" y="37" class="st2" width="41" height="2"/>
<rect x="51" y="44" class="st2" width="41" height="2"/>
<g id="picture_big_46_">
	<g>
		<path class="st3" d="M8,23v23h41V23H8z M12,44.1l7.2-9.5l3.3,2.9L17,44.1H12z M19.4,44.4l11.6-14.3l12.3,14.3H19.4z M47,44h-1.7
			L31,27.3l-7.5,8.9L19,32l-9,11.5V25h37V44z"/>
	</g>
</g>
<g id="text_rows_34_">
	<g>
		<path class="st3" d="M68.9,93h-65v2h65V93z M3.9,125H69v-2H3.9V125z M68.9,99h-65v2h65V99z M68.9,105h-65v2h65V105z M3.9,113H69
			v-2H3.9V113z M3.9,119H69v-2H3.9V119z M3.9,57v2H69v-2H3.9z M3.9,131H69v-2H3.9V131z M3.9,71H69v-2H3.9V71z M3.9,77H69v-2H3.9V77z
			 M68.9,81h-65v2h65V81z M68.9,87h-65v2h65V87z M3.9,65H69v-2H3.9V65z"/>
	</g>
</g>
<rect x="28.9" y="99" class="st4" width="40" height="26"/>
<rect x="4" y="62" class="st4" width="21" height="23"/>
<g id="picture_small_30_">
	<g>
		<path class="st3" d="M4,63v20h19V63H4z M9,81l6-7l6,7H9z M21,78.7l-6.3-7.4l-3.3,4.1L10,74l-4,5.3V65h15V78.7z"/>
	</g>
</g>
<g id="picture_big_44_">
	<g>
		<path class="st3" d="M30.9,99v26h38V99H30.9z M34.8,123l6.8-10l2.9,3l-4.9,7H34.8z M42.6,123l10.7-15L65,123H42.6z M67,122.5
			L53.3,105l-7.2,9.6l-4.4-4.6l-8.8,12.3V101H67V122.5z"/>
	</g>
</g>
<g id="Rectangle_3_copy_2_22_">
	<g>
		<rect x="73" y="54" class="st5" width="23" height="79"/>
	</g>
</g>
<g id="frame_3_22_">
	<g>
		<path class="st6" d="M90.5,100L90.5,100L90.5,100H77v29h13l0,0l0,0h2v-29H90.5z M89.6,102l-5.2,11.1L79.2,102H89.6z M83.5,115
			l-4.5,9.5v-19.2L83.5,115z M79.6,127l4.7-10.1L89,127H79.6z M85.3,115l4.7-10.1v20.4L85.3,115z"/>
	</g>
</g>
<g id="frame_2_22_">
	<g>
		<path class="st6" d="M77,81v1.1l0,0l0,0V96h15V81H77z M89.2,83l-4.5,4.4L80.2,83H89.2z M79,84.1l4.5,4.4L79,92.9V84.1z M84.7,89.6
			l4.5,4.4h-9L84.7,89.6z M85.8,88.5l4.2-4.1v8.3L85.8,88.5z"/>
	</g>
</g>
<g id="frame_1_22_">
	<g>
		<path class="st6" d="M77,58v1.4l0,0l0,0V77h1.1l0,0.1l0-0.1H92V58H77z M89.6,60l-4.9,6.1L79.7,60H89.6z M79,61.9l4.5,5.6L79,73.2
			V61.9z M84.7,68.9l4.9,6.1h-9.8L84.7,68.9z M85.8,67.5l4.2-5.2v10.5L85.8,67.5z"/>
	</g>
</g>
</svg>
