<?xml version="1.0" encoding="utf-8"?>
<!-- Generator: Adobe Illustrator 19.0.0, SVG Export Plug-In . SVG Version: 6.00 Build 0)  -->
<svg version="1.1" id="top_content-sidebar-content"
	 xmlns="http://www.w3.org/2000/svg" xmlns:xlink="http://www.w3.org/1999/xlink" x="0px" y="0px" viewBox="0 0 100 150"
	 style="enable-background:new 0 0 100 150;" xml:space="preserve" width="50px">
<style type="text/css">
	.st0{fill:#E6E6E6;}
	.st1{fill:#898989;}
	.st2{fill-rule:evenodd;clip-rule:evenodd;fill:#FFFFFF;}
	.st3{fill:#7FB585;}
	.st4{fill:#FFFFFF;}
	.st5{fill:#C5D6ED;}
	.st6{fill-rule:evenodd;clip-rule:evenodd;fill:#898989;}
</style>
<g id="header-footer_32_">
	<g>
		<path class="st0" d="M0,0v15h100V0H0z M0,150h100v-13H0V150z"/>
	</g>
</g>
<g id="content_copy_16">
</g>
<g id="text_rows_32_">
	<g>
		<path class="st1" d="M95.9,93h-65v2h65V93z M30.9,125H96v-2H30.9V125z M95.9,99h-65v2h65V99z M95.9,105h-65v2h65V105z M30.9,113
			H96v-2H30.9V113z M30.9,119H96v-2H30.9V119z M30.9,57v2H96v-2H30.9z M30.9,131H96v-2H30.9V131z M30.9,71H96v-2H30.9V71z M30.9,77
			H96v-2H30.9V77z M95.9,81h-65v2h65V81z M95.9,87h-65v2h65V87z M30.9,65H96v-2H30.9V65z"/>
	</g>
</g>
<rect x="55.9" y="99" class="st2" width="40" height="26"/>
<rect x="31" y="62" class="st2" width="21" height="23"/>
<g id="picture_small_28_">
	<g>
		<path class="st1" d="M31,63v20h19V63H31z M36,81l6-7l6,7H36z M48,78.7l-6.3-7.4l-3.3,4.1L37,74l-4,5.3V65h15V78.7z"/>
	</g>
</g>
<g id="picture_big_40_">
	<g>
		<path class="st1" d="M57.9,99v26h38V99H57.9z M61.8,123l6.8-10l2.9,3l-4.9,7H61.8z M69.6,123l10.7-15L92,123H69.6z M94,122.5
			L80.3,105l-7.2,9.6l-4.4-4.6l-8.8,12.3V101H94V122.5z"/>
	</g>
</g>
<g id="Rectangle_3_copy_2_20_">
	<g>
		<rect x="4" y="54" class="st3" width="23" height="79"/>
	</g>
</g>
<g id="frame_3_20_">
	<g>
		<path class="st4" d="M21.5,100L21.5,100L21.5,100H8v29h13l0,0l0,0h2v-29H21.5z M20.6,102l-5.2,11.1L10.2,102H20.6z M14.5,115
			l-4.5,9.5v-19.2L14.5,115z M10.6,127l4.7-10.1L20,127H10.6z M16.3,115l4.7-10.1v20.4L16.3,115z"/>
	</g>
</g>
<g id="frame_2_20_">
	<g>
		<path class="st4" d="M8,81v1.1l0,0l0,0V96h15V81H8z M20.2,83l-4.5,4.4L11.2,83H20.2z M10,84.1l4.5,4.4L10,92.9V84.1z M15.7,89.6
			l4.5,4.4h-9L15.7,89.6z M16.8,88.5l4.2-4.1v8.3L16.8,88.5z"/>
	</g>
</g>
<g id="frame_1_20_">
	<g>
		<path class="st4" d="M8,58v1.4l0,0l0,0V77h1.1l0,0.1l0-0.1H23V58H8z M20.6,60l-4.9,6.1L10.7,60H20.6z M10,61.9l4.5,5.6L10,73.2
			V61.9z M15.7,68.9l4.9,6.1h-9.8L15.7,68.9z M16.8,67.5l4.2-5.2v10.5L16.8,67.5z"/>
	</g>
</g>
<rect x="4" y="19" class="st5" width="92" height="31"/>
<rect x="51" y="30" class="st6" width="41" height="2"/>
<rect x="51" y="23" class="st6" width="41" height="2"/>
<rect x="51" y="37" class="st6" width="41" height="2"/>
<rect x="51" y="44" class="st6" width="41" height="2"/>
<g id="picture_big_42_">
	<g>
		<path class="st1" d="M8,23v23h41V23H8z M12,44.1l7.2-9.5l3.3,2.9L17,44.1H12z M19.4,44.4l11.6-14.3l12.3,14.3H19.4z M47,44h-1.7
			L31,27.3l-7.5,8.9L19,32l-9,11.5V25h37V44z"/>
	</g>
</g>
</svg>
