<?xml version="1.0" encoding="utf-8"?>
<!-- Generator: Adobe Illustrator 19.0.0, SVG Export Plug-In . SVG Version: 6.00 Build 0)  -->
<svg version="1.1" id="top_content-content" xmlns="http://www.w3.org/2000/svg" xmlns:xlink="http://www.w3.org/1999/xlink"
	 x="0px" y="0px" viewBox="0 0 100 150" style="enable-background:new 0 0 100 150;" xml:space="preserve" width="50px">
<style type="text/css">
	.st0{fill:#E6E6E6;}
	.st1{fill:#898989;}
	.st2{fill:#C5D6ED;}
	.st3{fill-rule:evenodd;clip-rule:evenodd;fill:#898989;}
</style>
<g id="header-footer_2_">
	<g>
		<path class="st0" d="M0,0v15h100V0H0z M0,150h100v-13H0V150z"/>
	</g>
</g>
<g id="content_copy">
	<g id="text_rows_2_">
		<g>
			<path class="st1" d="M49,96H4v2h45V96z M49,78H4v2h45V78z M49,90H4v2h45V90z M49,84H4v2h45V84z M49,102H4v2h45V102z M96,120H4v2
				h92V120z M96,126H4v2h92V126z M96,108H4v2h92V108z M96,114H4v2h92V114z M96,60H4v2h54v0h38V60z M96,36H4v2h92V36z M96,30H4v2h92
				V30z M96,42H4v2h92V42z M4,24v2h92v-2H4z M96,66H4v2h54v0h38V66z M96,48H4v2h54v0h38V48z M49,72H4v2h45V72z M96,54H4v2h54v0h38
				V54z"/>
		</g>
	</g>
	<g id="picture_big_2_">
		<g>
			<path class="st1" d="M51,72v32h45V72H51z M85.6,101.6l-6.4-8.4l3.8-3.7l8.3,12.1H85.6z M55.3,102l14.2-18.1L82.8,102H55.3z
				 M53,74h41v27.2l-10.7-15L78,91.6l-8.6-11.3L53,101.4V74z"/>
		</g>
	</g>
</g>
<rect x="4" y="19" class="st2" width="92" height="31"/>
<rect x="51" y="30" class="st3" width="41" height="2"/>
<rect x="51" y="23" class="st3" width="41" height="2"/>
<rect x="51" y="37" class="st3" width="41" height="2"/>
<rect x="51" y="44" class="st3" width="41" height="2"/>
<g id="picture_big_28_">
	<g>
		<path class="st1" d="M8,23v23h41V23H8z M12,44.1l7.2-9.5l3.3,2.9L17,44.1H12z M19.4,44.4l11.6-14.3l12.3,14.3H19.4z M47,44h-1.7
			L31,27.3l-7.5,8.9L19,32l-9,11.5V25h37V44z"/>
	</g>
</g>
</svg>
