<svg version="1" xmlns="http://www.w3.org/2000/svg" width="933.333" height="933.333" viewBox="0 0 700.000000 700.000000"><path d="M0 350v350h700V0H0v350zm342-103.5V270h-80v203h-58V270h-80v-47h218v23.5zm223-5.2v18.4l-28.1 32.2c-15.5 17.7-27.9 32.3-27.8 32.4.2.1 4.4 1.3 9.4 2.5 14.7 3.7 27.4 10.6 37.6 20.5 20.7 19.9 25.5 53.7 11.9 82.2-11.7 24.3-35.8 40-71 46.1-12 2-44.8 1.5-58.3-1-14-2.7-27.3-6.4-37.1-10.4-10.4-4.3-23.5-11.7-24.2-13.7-.5-1.1 19.4-40.6 21.5-42.8.4-.4 4.5 1.5 9 4.3 15.9 9.5 36.2 15.4 57.1 16.6 24.2 1.4 43-5.9 49.5-19.1 2.7-5.3 2.8-21.5.3-26-2.4-4.4-7.6-9.4-12.2-11.7-8.3-4.3-13.3-5-36.3-5.5l-22.3-.5v-38.3l25.7-29 25.6-29-53.1-.3-53.2-.2v-46h176v18.3z"/></svg>