<?xml version="1.0" standalone="no"?>
<!DOCTYPE svg PUBLIC "-//W3C//DTD SVG 20010904//EN"
 "http://www.w3.org/TR/2001/REC-SVG-20010904/DTD/svg10.dtd">
<svg version="1.0" xmlns="http://www.w3.org/2000/svg"
 width="700.000000pt" height="700.000000pt" viewBox="0 0 700.000000 700.000000"
 preserveAspectRatio="xMidYMid meet">
<metadata>
Created by potrace 1.14, written by Peter Selinger 2001-2017
</metadata>
<g transform="translate(0.000000,700.000000) scale(0.100000,-0.100000)"
fill="#000000" stroke="none">
<path d="M0 3500 l0 -3500 3500 0 3500 0 0 3500 0 3500 -3500 0 -3500 0 0
-3500z m3420 1035 l0 -235 -400 0 -400 0 0 -1015 0 -1015 -290 0 -290 0 0
1015 0 1015 -400 0 -400 0 0 235 0 235 1090 0 1090 0 0 -235z m2230 51 l0
-184 -281 -321 c-155 -177 -279 -323 -278 -324 2 -1 44 -13 94 -25 254 -63
442 -218 524 -432 116 -300 15 -660 -240 -855 -184 -142 -434 -215 -740 -215
-343 0 -660 77 -889 216 l-79 47 71 136 c102 195 159 301 162 301 2 0 40 -22
85 -50 274 -164 670 -217 896 -120 77 33 121 68 157 123 32 49 33 56 33 152 0
111 -9 137 -67 194 -39 38 -82 62 -158 86 -43 14 -103 19 -277 22 l-223 5 0
192 0 191 257 290 256 290 -531 3 -532 2 0 230 0 230 880 0 880 0 0 -184z"/>
</g>
</svg>
